<?xml version="1.0" encoding="UTF-8"?>
<svg version="1.1" xmlns="http://www.w3.org/2000/svg" width="2480" height="1713">
<path d="M0 0 C2.08477717 -0.0020911 4.16955361 -0.00505716 6.25432846 -0.00880873 C11.95436735 -0.01655334 17.65433794 -0.01195991 23.35437565 -0.00525283 C29.56661838 -0.00015997 35.77885098 -0.00670695 41.99109226 -0.01173949 C52.8694694 -0.01895135 63.74782316 -0.01881859 74.62620068 -0.01364517 C86.29154284 -0.00813139 97.95687336 -0.00699101 109.62221622 -0.01111984 C110.36061001 -0.01137819 111.09900379 -0.01163653 111.85977314 -0.01190271 C114.86742558 -0.01296932 117.87507801 -0.01406674 120.88273043 -0.01520326 C148.85992491 -0.02576762 176.8371116 -0.02650565 204.81430721 -0.02090836 C206.05643098 -0.02065997 206.05643098 -0.02065997 207.32364815 -0.02040657 C208.1530644 -0.02024071 208.98248065 -0.02007485 209.83703072 -0.01990396 C235.12294089 -0.01485422 260.40884784 -0.01355638 285.69475842 -0.01594925 C287.38913225 -0.01610421 289.08350608 -0.01625852 290.77787992 -0.01641219 C297.58716722 -0.01703314 304.39645451 -0.01767048 311.20574181 -0.01833172 C330.23968562 -0.02016559 349.27362943 -0.0213069 368.30757332 -0.02190399 C369.17428081 -0.02193128 370.0409883 -0.02195857 370.93395965 -0.02198669 C398.54431435 -0.02280505 426.15466793 -0.0205525 453.76502228 -0.01620483 C454.66032283 -0.01606434 455.55562338 -0.01592384 456.47805426 -0.01577908 C471.01642061 -0.01348929 485.55478694 -0.01105031 500.09315327 -0.00859874 C557.74860107 0.00111323 615.40403958 0.00066325 673.05948734 -0.00905991 C687.58939424 -0.01150237 702.11930114 -0.0139245 716.64920807 -0.01620483 C717.54391563 -0.01634573 718.4386232 -0.01648663 719.36044311 -0.01663179 C746.94156471 -0.02094541 774.52268553 -0.02277247 802.10380745 -0.02190399 C802.969889 -0.02187682 803.83597055 -0.02184965 804.72829699 -0.02182166 C823.74183986 -0.02119665 842.75538264 -0.01992927 861.76892542 -0.01808299 C868.57237807 -0.01742473 875.37583073 -0.01679856 882.17928339 -0.01618156 C883.87174526 -0.01602679 885.56420714 -0.01586933 887.25666901 -0.01570917 C912.53394114 -0.01332381 937.81120965 -0.01535134 963.08848133 -0.02040657 C963.91648104 -0.02057216 964.74448076 -0.02073775 965.59757137 -0.02090836 C966.42403802 -0.02107372 967.25050467 -0.02123909 968.10201577 -0.02140946 C996.00093637 -0.02693061 1023.89984763 -0.02488715 1051.7987669 -0.01434687 C1054.79736347 -0.01324221 1057.79596004 -0.01216879 1060.79455662 -0.01111984 C1061.53044299 -0.01085943 1062.26632936 -0.01059902 1063.02451532 -0.01033071 C1074.65575285 -0.00639279 1086.28697873 -0.00912508 1097.91821521 -0.01465785 C1109.36739398 -0.01996093 1120.81654697 -0.01790091 1132.26572449 -0.00862968 C1138.38487062 -0.00387613 1144.50397276 -0.00223717 1150.6231175 -0.00944164 C1156.19870153 -0.01593909 1161.77420285 -0.01310461 1167.34978094 -0.00308032 C1169.34564159 -0.00107941 1171.34150921 -0.00236246 1173.33736427 -0.0074922 C1189.33818414 -0.04567254 1206.1054682 -0.02258072 1221.58658695 4.50168228 C1222.36171635 4.71856705 1223.13684574 4.93545181 1223.93546391 5.15890884 C1247.0738863 11.8398046 1266.2984974 23.78606551 1283.77408695 40.25168228 C1284.67707523 41.07539322 1284.67707523 41.07539322 1285.5983057 41.91574478 C1301.86563881 57.31093649 1313.39804609 78.74292042 1320.02408695 99.93918228 C1320.2582935 100.66709976 1320.49250004 101.39501724 1320.73380375 102.14499283 C1326.98107798 123.30150236 1326.14893689 145.05142125 1325.9800806 166.85568619 C1325.94896239 171.30795351 1325.9355996 175.76027423 1325.92057133 180.21261978 C1325.888743 188.89245103 1325.83778758 197.57202658 1325.77408695 206.25168228 C1258.3983449 206.30326296 1191.02260047 206.35093809 1123.64684391 206.3787117 C1122.64470135 206.37912587 1121.6425588 206.37954004 1120.61004829 206.37996676 C1098.81451809 206.38895198 1077.01898768 206.39726159 1055.22345696 206.40487827 C1044.5301285 206.40861926 1033.8368001 206.41250907 1023.14347172 206.4164772 C1022.07953282 206.41686948 1021.01559393 206.41726176 1019.91941446 206.41766592 C985.62675715 206.43037913 951.33411497 206.452859 917.04146677 206.48057394 C881.70957049 206.50907595 846.37768253 206.52738535 811.04577495 206.53342725 C806.01977029 206.53429132 800.99376566 206.53526822 795.96776104 206.53631401 C794.48442741 206.53661741 794.48442741 206.53661741 792.97112745 206.53692695 C779.1845125 206.53999864 765.397918 206.55000985 751.61131172 206.56559084 C587.95227926 206.75041874 587.95227926 206.75041874 525.85692027 203.36465338 C523.63796963 203.24429939 521.41890116 203.12633437 519.19979548 203.00887465 C501.02969094 202.04668279 482.87213055 200.9953672 464.72037601 199.72824478 C460.41083665 199.42819957 456.10127342 199.14556979 451.78873539 198.89230728 C422.69296781 197.17845835 394.3131282 192.34653391 365.69596195 187.0234108 C339.66096352 182.19769875 313.3104991 177.70866325 286.77408695 177.25168228 C285.82598148 177.23121841 284.87787601 177.21075455 283.90104008 177.18967056 C231.47113704 175.75400082 231.47113704 175.75400082 181.77408695 189.25168228 C180.80729008 189.72605728 179.8404932 190.20043228 178.84439945 190.68918228 C172.36627498 194.2261998 166.62645892 198.66520928 163.79752445 205.66965103 C162.22801342 211.76805233 162.73659167 216.7242674 165.77408695 222.25168228 C172.63985457 232.33972734 186.40163794 236.71595414 197.77408695 239.25168228 C201.25279842 239.70651651 204.70660871 239.87161562 208.21158695 239.98215103 C209.18957249 240.02247955 210.16755802 240.06280807 211.17517948 240.10435867 C214.37446053 240.23079107 217.57396386 240.33641813 220.77408695 240.43918228 C221.88157291 240.47837784 222.98905888 240.51757339 224.13010502 240.5579567 C278.65707881 242.48006685 331.21314233 240.06510835 385.1217432 231.66574478 C429.74112497 224.73363612 474.7088865 222.41178826 519.77408695 220.25168228 C520.4451009 220.21938021 521.11611484 220.18707813 521.80746255 220.15379721 C568.81171979 217.8930497 615.70923008 216.80845826 662.76616235 216.89884932 C671.59595351 216.91513391 680.42572265 216.91280263 689.25552512 216.91043989 C705.53105311 216.90656178 721.80654368 216.91627381 738.08206081 216.93449211 C754.13301819 216.95241187 770.18395987 216.96382339 786.23492718 216.96705055 C787.74732321 216.96735988 787.74732321 216.96735988 789.2902727 216.96767546 C794.41337362 216.96869084 799.53647455 216.96959485 804.6595755 216.97045609 C840.68937435 216.97671168 876.71915297 216.99679411 912.74894047 217.02536392 C947.69164773 217.0530392 982.6343494 217.07422974 1017.57706547 217.08688736 C1018.65935588 217.08728194 1019.74164629 217.08767652 1020.85673337 217.08808305 C1031.7282472 217.09203954 1042.59976106 217.09586685 1053.47127496 217.09959963 C1075.60617356 217.10720268 1097.74107181 217.11566643 1119.87596989 217.12465286 C1120.89308554 217.12506473 1121.9102012 217.1254766 1122.95813854 217.12590095 C1175.37776645 217.14720403 1227.79738501 217.18127513 1280.21700382 217.21835709 C1280.95250894 217.2188773 1281.68801406 217.21939751 1282.44580722 217.21993349 C1296.88856739 217.23017187 1311.33132711 217.24098156 1325.77408695 217.25168228 C1325.77408695 237.05168228 1325.77408695 256.85168228 1325.77408695 277.25168228 C1291.45793848 277.31652159 1291.45793848 277.31652159 1278.13861942 277.34054947 C1277.30950424 277.34204544 1276.48038907 277.3435414 1275.62614919 277.3450827 C1220.61285417 277.44419377 1165.59956219 277.53353577 1110.58620548 277.5904274 C1108.98833604 277.59208408 1108.98833604 277.59208408 1107.3581864 277.59377424 C1084.19560702 277.61772942 1061.03302625 277.63988916 1037.87044341 277.66020492 C1026.50800202 277.67018175 1015.145561 277.68055443 1003.78312016 277.69113541 C1002.65254936 277.69218148 1001.52197857 277.69322755 1000.35714805 277.69430532 C963.85305128 277.72826605 927.34905497 277.78825795 890.84501882 277.86206005 C853.26523676 277.93789726 815.68551008 277.98685236 778.10565281 278.0030022 C772.77170072 278.00530672 767.43774882 278.00791179 762.10379696 278.01070023 C760.5294297 278.0115093 760.5294297 278.0115093 758.92325705 278.01233472 C742.1729812 278.02171004 725.42287892 278.05859879 708.67267326 278.10633855 C691.7451794 278.15397597 674.81785383 278.17129388 657.89029557 278.1596933 C648.75418135 278.15422385 639.61852641 278.16078768 630.48250675 278.20532608 C588.12631382 278.40396531 547.11061188 276.36371998 505.17259777 270.18343163 C496.67187915 268.93161345 488.14943532 267.87419609 479.6217432 266.82590103 C477.0897007 266.50535398 474.55823996 266.18051827 472.0267725 265.85544205 C435.54807343 261.19819539 399.27393433 257.5410992 362.48966312 256.69968033 C361.5995253 256.6787656 360.70938748 256.65785086 359.79227579 256.63630235 C338.68180273 256.14969742 317.57343904 256.08714323 296.45821881 256.08442521 C293.25766638 256.08369827 290.05711786 256.08153424 286.85656643 256.07892799 C275.54448404 256.06975421 264.23241317 256.0655821 252.92032719 256.06637955 C243.74973633 256.06690957 234.57918839 256.05990121 225.40860844 256.04587173 C160.67710587 255.92728431 160.67710587 255.92728431 95.95864558 257.0754106 C93.73005019 257.13734513 91.50140122 257.19696845 89.27273846 257.25642204 C55.41747615 257.17600136 55.41747615 257.17600136 25.92252445 271.91183853 C21.32222449 276.8860545 19.10514203 282.10665908 18.39908695 288.81418228 C19.17639573 295.93951271 22.46840137 301.55429186 27.77408695 306.25168228 C45.94296536 318.33080771 70.25595617 317.55024853 91.18033695 317.84152603 C93.40247058 317.8783302 95.62459772 317.91552814 97.84671879 317.95308304 C126.57180412 318.4173203 155.30098344 318.609328 184.02895308 318.79925108 C187.05845089 318.81939867 190.08794516 318.84005591 193.11743969 318.8606903 C215.00288866 319.00951311 236.88841439 319.14044457 258.77408695 319.25168228 C259.4416517 319.25507929 260.10921644 319.2584763 260.79701042 319.26197624 C276.59093218 319.34187718 292.38476457 319.40272774 308.17887211 319.4279213 C312.19794017 319.43436609 316.2169557 319.44504391 320.23600101 319.45996475 C354.04898099 319.57856153 387.83021809 318.62565179 421.52408695 315.62668228 C422.4338126 315.54820053 423.34353825 315.46971878 424.28083134 315.3888588 C442.77637854 313.78221253 461.21854449 311.69566275 479.66109562 309.57824707 C481.96444275 309.31385447 484.26787986 309.05025653 486.57132816 308.78674698 C506.19149868 306.55731684 506.19149868 306.55731684 525.77985477 304.06857681 C546.61658846 301.28712102 567.13084477 299.8858795 588.15860844 299.64255142 C590.17409259 299.6148953 592.18957667 299.58723061 594.20505388 299.55907263 C627.42330988 299.10011858 660.64551789 299.03028702 693.86639128 298.95461486 C700.41756344 298.939615 706.96872838 298.92265678 713.51989269 298.90456009 C714.47808606 298.90191409 715.43627942 298.89926809 716.42350895 298.89654192 C718.37808476 298.89113726 720.33266057 298.88572922 722.28723637 298.88031785 C741.75633485 298.82665813 761.22544532 298.77920014 780.69456512 298.73403013 C794.55990198 298.70183369 808.4252341 298.66808266 822.29056427 298.63312437 C925.7852822 298.37237947 1029.27979708 298.19447087 1325.77408695 298.25168228 C1325.77408695 317.72168228 1325.77408695 337.19168228 1325.77408695 357.25168228 C1264.65472274 357.45584095 1203.53536465 357.64933251 1142.41574955 357.75979996 C1141.50152601 357.76145664 1140.58730246 357.76311333 1139.64537517 357.76482021 C1119.74522459 357.80079041 1099.8450703 357.83402456 1079.94491051 357.86446624 C1070.17654273 357.87942564 1060.40817594 357.89498548 1050.63980961 357.91086197 C1049.18221706 357.91321563 1049.18221706 357.91321563 1047.6951782 357.91561684 C1016.57282056 357.96615057 985.45073593 358.05581387 954.32854163 358.16724893 C922.16820234 358.28218352 890.00801199 358.35469989 857.84747093 358.37866216 C853.2358434 358.3821167 848.62421637 358.38602424 844.01258945 358.3902092 C842.65201421 358.39142281 842.65201421 358.39142281 841.2639526 358.39266094 C828.7785543 358.40479775 816.29352723 358.44426563 803.80828579 358.50731248 C782.6844776 358.61394021 761.56123414 358.66989361 740.43717289 358.61398697 C739.62453395 358.61184531 738.81189501 358.60970365 737.97463065 358.60749709 C672.84655723 358.41827377 608.34520328 353.94441669 543.5297769 347.83388063 C522.52241462 345.85452423 501.5120565 344.2417764 480.45176029 342.93985367 C479.15554651 342.85967197 477.85933273 342.77949027 476.52383974 342.69687882 C432.73975787 340.01573823 388.96412065 338.3188735 345.10221195 337.70090103 C344.38495221 337.69060167 343.66769247 337.68030231 342.92869759 337.66969085 C296.81568806 337.01153535 250.69727999 337.06417127 204.58058786 337.06657112 C195.98963785 337.06626675 187.39871914 337.05806257 178.80777836 337.04587173 C109.68014985 336.92232477 109.68014985 336.92232477 40.56490135 338.0754106 C38.20316821 338.13739179 35.84138332 338.19699603 33.47958469 338.25642204 C29.85475388 338.34926727 26.23036468 338.45247697 22.60608673 338.56482148 C20.71850795 338.62241948 18.83074453 338.67386999 16.94297886 338.72497749 C0.00930931 339.30618452 -18.60573496 341.24240284 -31.03841305 354.13058853 C-35.52174217 359.63775483 -37.35334312 364.61992509 -37.10091305 371.81418228 C-35.34189379 378.72461508 -32.39390061 382.84819821 -26.60091305 386.84152603 C-5.27934799 399.50120529 21.79736122 397.42038533 45.68485236 397.75032544 C47.78501169 397.77955871 49.88514879 397.81010389 51.98528576 397.84089851 C92.2250208 398.42560476 132.46909285 398.5813775 172.71221125 398.76909196 C180.12420485 398.80383097 187.5361841 398.84089644 194.94815922 398.87936783 C195.99730434 398.8848095 197.04644947 398.89025118 198.12738687 398.89585775 C199.17447546 398.90128971 200.22156406 398.90672167 201.30038261 398.91231823 C223.99723401 399.03004266 246.69411063 399.13495275 269.39109844 399.22265893 C274.01317593 399.24056114 278.63524581 399.25955687 283.25731218 399.28012836 C309.04242579 399.39455016 334.77070105 399.32665917 360.53270435 398.16194153 C362.81260781 398.05964981 365.09264967 397.96107917 367.37275028 397.86328506 C419.11574104 395.63620323 470.7886989 392.28900941 522.4576807 388.77511978 C523.26749008 388.72005461 524.07729946 388.66498944 524.91164851 388.60825562 C542.16699192 387.43464122 559.42188703 386.25470176 576.67571831 385.05905151 C582.15947149 384.67909922 587.64335947 384.30110816 593.12727636 383.92352676 C597.38638826 383.63007636 601.6453444 383.33456002 605.90405834 383.0353868 C638.39663662 380.76999139 670.79903367 378.94767299 703.37745048 378.93500726 C707.47635565 378.93119675 711.57522425 378.91597484 715.6741066 378.90240192 C723.70739078 378.87749492 731.74066247 378.86256325 739.77397582 378.85109391 C749.34109314 378.83696832 758.90817422 378.81186302 768.47526743 378.78657579 C787.00363709 378.73798641 805.53201609 378.70035641 824.06041988 378.66765719 C840.11833699 378.63928016 856.17623882 378.60659821 872.23413944 378.57007217 C876.53852207 378.56031387 880.84290471 378.55056455 885.14728737 378.54082012 C886.21435583 378.53840352 887.28142429 378.53598691 888.38082816 378.53349708 C984.41381912 378.31663246 1080.44690129 378.19069443 1325.77408695 378.25168228 C1325.77408695 397.06168228 1325.77408695 415.87168228 1325.77408695 435.25168228 C1265.40357809 435.47258552 1205.03307597 435.68222306 1144.66227055 435.8021431 C1143.76109825 435.80393784 1142.85992596 435.80573258 1141.93144542 435.80758171 C1122.32139156 435.84653788 1102.71133331 435.88254324 1083.10126853 435.91553156 C1073.47707032 435.93173939 1063.85287329 435.94859563 1054.2286768 435.96579361 C1053.27122529 435.96749348 1052.31377378 435.96919335 1051.3273086 435.97094472 C1020.5912327 436.02581525 989.85547857 436.12305281 959.11959563 436.24354615 C927.39264609 436.36769148 895.66587262 436.44653745 863.93868441 436.47257715 C859.40240336 436.47632025 854.86612289 436.48055345 850.32984257 436.48508644 C849.43750237 436.48596294 848.54516216 436.48683944 847.62578135 436.4877425 C835.2856854 436.50094965 822.94602592 436.54393616 810.60611465 436.61194797 C789.78958771 436.72663827 768.97372414 436.78829758 748.15689945 436.72751236 C747.36371456 436.72521431 746.57052966 436.72291626 745.75330886 436.72054857 C689.01416072 436.53940069 633.49708461 432.34854357 577.22936392 425.01676173 C542.78193015 420.52954799 508.09584743 418.11336561 473.39908695 416.56418228 C470.78481934 416.442159 468.17056172 416.31992152 465.55631351 416.19748306 C447.19374655 415.35036212 428.83914264 414.67997943 410.4608891 414.30666304 C407.64244372 414.24898843 404.82403752 414.18959186 402.00562954 414.13011932 C366.17601244 413.38202323 330.3614531 413.09902948 294.524388 413.11638247 C289.56019249 413.11871859 284.59600038 413.1189308 279.63180447 413.11786652 C278.90854625 413.11771328 278.18528804 413.11756005 277.44011291 413.11740217 C275.96807685 413.11708226 274.49604078 413.11675804 273.02400472 413.11642958 C259.42064861 413.11362007 245.81729938 413.11678932 232.2139444 413.12222995 C220.69126388 413.12669668 209.16859346 413.12591413 197.64591312 413.12131119 C184.06611425 413.11588855 170.48632131 413.11389136 156.9065215 413.11692345 C155.44265505 413.1172418 153.9787886 413.11755618 152.51492214 413.11786652 C151.79578923 413.11802079 151.07665632 413.11817507 150.33573151 413.11833402 C145.41015058 413.11917626 140.48457365 413.11776852 135.55899334 413.11538696 C99.61947724 413.09951661 63.70457106 413.42999287 27.77408695 414.25168228 C26.51477973 414.28023619 26.51477973 414.28023619 25.23003197 414.30936694 C17.19730372 414.49216963 9.16601354 414.6917569 1.13565922 414.96188736 C-1.04640368 415.03221152 -3.22873232 415.09459724 -5.41121578 415.15036392 C-25.04221113 415.65545439 -44.36948586 416.34152531 -59.4954443 430.38058853 C-63.82759328 435.06478574 -65.44732977 439.45029561 -65.72591305 445.81418228 C-65.43244334 452.66811988 -63.08726838 456.68173031 -58.22591305 461.37668228 C-43.25607766 473.32069988 -21.762569 473.3065481 -3.58406734 473.78293228 C-2.07171744 473.82483288 -0.55936897 473.86678536 0.95297813 473.90878677 C15.43381529 474.30159787 29.91636154 474.53610019 44.40121698 474.72407866 C47.31104901 474.76226647 50.22085255 474.80243812 53.13065839 474.84256446 C61.77523954 474.96173388 70.41988368 475.0757162 79.06455708 475.18796921 C83.17528307 475.24135477 87.28599965 475.2954294 91.39671355 475.34973657 C154.15034094 476.17867067 216.90427341 476.87099361 279.66256046 477.23357773 C282.70222124 477.25126413 285.74187729 477.26962583 288.78153324 477.28812027 C334.82545209 477.56427168 380.76414721 477.26388576 426.77408695 475.25168228 C427.47101658 475.22148247 428.16794621 475.19128265 428.88599491 475.16016769 C468.45072131 473.44443544 507.96004475 471.01397347 547.45780277 468.15216064 C550.27361235 467.9482679 553.08951718 467.74573561 555.90543461 467.54333878 C561.41695358 467.1456788 566.92756424 466.73626642 572.43814945 466.32590103 C573.34878202 466.25870188 574.25941459 466.19150273 575.19764209 466.12226725 C588.20477102 465.1559153 601.18922228 464.03960849 614.17037225 462.77752551 C660.03272844 458.33448946 705.42717202 456.20693764 751.49394568 456.33338821 C760.51047628 456.3566056 769.52682691 456.33731274 778.54334915 456.31786546 C795.02174178 456.2834046 811.49998724 456.27974242 827.97840214 456.29608536 C844.11135163 456.31200318 860.24419579 456.31309228 876.37714481 456.29541397 C877.38786055 456.2943149 878.39857628 456.29321583 879.43991976 456.29208345 C884.56109642 456.28644268 889.68227277 456.28055199 894.80344903 456.27456725 C932.88929728 456.23056141 970.97506509 456.22610073 1009.06093104 456.24047719 C1014.09456844 456.24236505 1019.12820585 456.24418922 1024.1618433 456.24594498 C1025.64422579 456.24646344 1025.64422579 456.24646344 1027.15655539 456.24699237 C1048.79778926 456.25425607 1070.43900831 456.24661644 1092.0802393 456.23508072 C1093.86192187 456.23414679 1095.64360444 456.23321365 1097.42528701 456.23228133 C1104.42079276 456.22859768 1111.41629845 456.2248219 1118.41180408 456.22091848 C1136.55111895 456.2108201 1154.69043433 456.20279605 1172.82975101 456.19675064 C1173.60884706 456.1964906 1174.3879431 456.19623057 1175.19064811 456.19596265 C1225.38514235 456.17954214 1275.57960945 456.21123949 1325.77408695 456.25168228 C1325.77408695 474.07168228 1325.77408695 491.89168228 1325.77408695 510.25168228 C1267.94643346 510.37029755 1210.11878166 510.48320285 1152.29103947 510.54808426 C1151.43192013 510.54905066 1150.5728008 510.55001706 1149.68764754 510.55101274 C1131.00600474 510.57197468 1112.32436061 510.59136429 1093.6427145 510.60913959 C1084.47809031 510.61786913 1075.31346648 510.62694526 1066.14884281 510.63620377 C1065.23696782 510.63711908 1064.32509283 510.63803439 1063.38558527 510.63897744 C1033.95533887 510.66868052 1004.52518803 510.72116372 975.09499927 510.78576283 C944.79151901 510.85215626 914.48809139 510.89496425 884.18453965 510.90908721 C879.8810343 510.91110359 875.57752913 510.91338303 871.27402401 510.91582298 C870.00383236 510.91653092 870.00383236 510.91653092 868.70798027 510.91725317 C855.20682501 510.92544902 841.705835 510.9577054 828.20474651 510.99950652 C814.55287944 511.04124106 800.90117219 511.05633006 787.24924386 511.04619192 C779.88421291 511.04141375 772.51961814 511.04706167 765.15467739 511.08612061 C730.61486405 511.26229371 697.04629443 509.4230603 662.83390861 504.51979623 C634.97730566 500.53522374 606.83504554 498.24671963 578.77408695 496.25168228 C578.09732914 496.20312088 577.42057133 496.15455948 576.7233057 496.10452652 C531.17305166 492.86471996 485.37639294 492.262548 439.72591782 491.73361136 C437.07238937 491.70283288 434.41887048 491.67130207 431.7653513 491.63973558 C393.1607176 491.18514642 354.55808954 491.08723738 315.95114613 491.08442521 C310.40202353 491.0839165 304.85290249 491.08159034 299.30378056 491.07892799 C280.75060795 491.07021653 262.19744092 491.06549498 243.64426625 491.06625847 C242.17156216 491.0663184 242.17156216 491.0663184 240.66910648 491.06637955 C239.68601061 491.06642043 238.70291473 491.06646131 237.69002807 491.06650343 C221.74454234 491.06691029 205.79908015 491.05730505 189.85360122 491.04324118 C173.19761702 491.02867417 156.54164418 491.02198147 139.8856535 491.02283496 C130.64732309 491.02315938 121.40901784 491.02069372 112.1706934 491.00965691 C75.64045587 490.96830717 39.12578189 491.12969221 2.60484242 492.01985453 C0.17189611 492.07776473 -2.26111095 492.1312038 -4.6941843 492.18347704 C-8.49404122 492.26625341 -12.29327654 492.36338417 -16.09249043 492.47164811 C-18.11605356 492.52678171 -20.13992917 492.57006447 -22.16379261 492.61277568 C-38.57106138 493.12901273 -57.34734847 495.79131046 -69.22591305 508.25168228 C-73.15494811 513.73019596 -75.06223844 519.10901329 -74.6282568 525.87277603 C-73.55422494 532.22311976 -71.00961458 536.00467727 -65.91341305 539.93918228 C-45.04168497 553.38303066 -17.11231065 551.31146043 6.72721195 551.71652603 C8.82172772 551.75434898 10.91624056 551.79233402 13.01075077 551.83046341 C20.01509659 551.95612943 27.01958025 552.0728922 34.02408695 552.18918228 C36.52186949 552.23122656 39.01965188 552.27327991 41.51743412 552.31534195 C129.7219677 553.79029185 217.94277405 554.92647188 470.1036768 553.41312027 C473.94407349 553.24420566 477.78477415 553.0846152 481.62564945 552.92697525 C531.56462731 550.87003023 581.45645394 547.93292495 631.27408695 543.87668228 C632.91564762 543.74595322 632.91564762 543.74595322 634.59037113 543.61258316 C637.89198488 543.34732071 641.19244147 543.07076277 644.49283695 542.79074478 C645.60371111 542.69683771 646.71458527 542.60293064 647.85912228 542.5061779 C655.90629476 541.78600154 663.90564467 540.86626187 671.91651249 539.817173 C707.70737648 535.22732025 742.92732728 534.36486889 778.95142416 534.4369265 C787.35978086 534.45246818 795.7679756 534.43226662 804.17630801 534.41160753 C819.56427937 534.37474907 834.9521481 534.36471193 850.34015751 534.37152481 C865.43847816 534.37815285 880.53671113 534.37228807 895.63501835 534.35034561 C896.57793252 534.3489839 897.52084669 534.34762218 898.49233402 534.3462192 C902.3130518 534.34065794 906.13376944 534.33500413 909.95448691 534.32923133 C948.57918502 534.27088853 987.20381787 534.25305569 1025.82855506 534.25308749 C1027.73061697 534.25308906 1029.63267888 534.25308901 1031.53474078 534.25308733 C1033.42746601 534.25308651 1035.32019123 534.25309148 1037.21291646 534.25310231 C1056.97935647 534.25309267 1076.74578724 534.24378686 1096.51222342 534.23218799 C1104.13369087 534.22773765 1111.75515845 534.22351456 1119.37662601 534.21927261 C1120.20056936 534.21881248 1121.0245127 534.21835235 1121.87342402 534.21787828 C1189.8403567 534.18008668 1257.80716516 534.19574526 1325.77408695 534.25168228 C1325.77408695 553.06168228 1325.77408695 571.87168228 1325.77408695 591.25168228 C1265.84855639 591.45551573 1205.92303147 591.64903324 1145.99724674 591.75979996 C1145.10329036 591.76145664 1144.20933398 591.76311333 1143.28828801 591.76482021 C1123.83712112 591.80077642 1104.38595046 591.83401263 1084.93477419 591.86446624 C1075.38910482 591.87942782 1065.84343648 591.89498736 1056.29776859 591.91086197 C1055.34810931 591.91243108 1054.39845003 591.91400019 1053.42001319 591.91561684 C1022.91206477 591.96630284 992.40439183 592.05608985 961.89660874 592.16724893 C930.41571242 592.28173907 898.934967 592.35460219 867.4538661 592.37866216 C862.95686214 592.38211753 858.45985868 592.3860251 853.96285534 592.3902092 C853.07820723 592.39101827 852.19355913 592.39182735 851.2821035 592.39266094 C839.03062824 592.40486919 826.77952641 592.44461488 814.52820922 592.50731248 C793.8801683 592.61294112 773.23268558 592.67059536 752.58438969 592.61398697 C751.79998425 592.61184531 751.01557881 592.60970365 750.20740352 592.60749709 C695.35541491 592.44225316 641.72580931 588.647014 587.30006713 581.44546676 C557.75704431 577.56573253 527.96463047 575.20098945 498.21158695 573.62668228 C497.15196751 573.56853348 496.09234806 573.51038467 495.00061893 573.45047379 C476.78753732 572.4560876 458.56631733 571.73494734 440.33658695 571.12668228 C439.19793186 571.08807083 438.05927677 571.04945938 436.88611698 571.00967789 C390.68705022 569.47432482 344.47587484 569.09478566 298.25489383 569.11638242 C293.12327545 569.11871337 287.99166038 569.11893286 282.86004162 569.11786652 C282.11388532 569.11771328 281.36772903 569.11756005 280.59896194 569.11740217 C279.08053954 569.11708227 277.56211714 569.11675805 276.04369474 569.11642958 C261.99210285 569.11361613 247.94051761 569.1167956 233.88892681 569.12222995 C221.97702701 569.12669508 210.06513697 569.12591625 198.15323734 569.12131119 C184.13105917 569.11589241 170.10888673 569.11388947 156.08670765 569.11692345 C154.57591061 569.11724182 153.06511357 569.11755619 151.55431652 569.11786652 C150.44090932 569.11809793 150.44090932 569.11809793 149.30500905 569.11833402 C144.21218003 569.11917752 139.11935488 569.11776556 134.02652645 569.11538696 C97.93188877 569.09999028 61.85969729 569.40459902 25.77408695 570.25168228 C24.95232204 570.27071822 24.13055713 570.28975416 23.28389025 570.30936694 C15.38244667 570.49257951 7.482451 570.69163922 -0.41658688 570.96188736 C-2.56381417 571.03224696 -4.71131316 571.0946237 -6.85896969 571.15036392 C-26.10882299 571.65350898 -44.66760503 572.61822274 -59.4954443 586.38058853 C-63.82759328 591.06478574 -65.44732977 595.45029561 -65.72591305 601.81418228 C-65.44722639 608.53053073 -63.38716697 612.09042836 -58.60091305 616.87668228 C-42.50308776 629.02974345 -21.84667521 629.27377472 -2.56258297 629.78293228 C-1.05588215 629.82486158 0.45081803 629.86681353 1.95751762 629.90878677 C16.63861007 630.30798091 31.32170115 630.53803711 46.00689054 630.72407866 C48.98416532 630.76223409 51.96141158 630.80241816 54.93866009 630.84256446 C63.77807707 630.96173255 72.61755593 631.07568669 81.45706272 631.18796921 C86.50580166 631.2521199 91.55452583 631.31738962 96.60324955 631.38272476 C158.99116548 632.18854768 221.37941327 632.86251631 283.77162266 633.23357773 C286.67843413 633.2511055 289.58523904 633.26946921 292.4920435 633.28812027 C337.29642224 633.57309151 382.00298827 633.06866095 426.77408695 631.25168228 C427.98262333 631.20312088 429.19115971 631.15455948 430.4363184 631.10452652 C509.06630804 627.9100071 587.55402875 621.61080863 665.95743656 615.00436783 C666.69308149 614.94256993 667.42872643 614.88077204 668.18666363 614.81710148 C669.2508077 614.72709637 669.2508077 614.72709637 670.33644962 614.63527298 C671.34692741 614.55061349 671.34692741 614.55061349 672.37781888 614.46424371 C673.97645942 614.32243599 675.57402994 614.16800484 677.17023855 614.00103462 C684.25729657 613.28097012 691.26796994 613.09964148 698.38810062 613.0934639 C699.61698909 613.08852574 700.84587755 613.08358759 702.11200505 613.07849979 C705.50433438 613.06585688 708.89662322 613.0575233 712.28896655 613.05107288 C715.98018607 613.04299323 719.67138567 613.02930527 723.36259079 613.01636982 C730.65770117 612.99170731 737.95281678 612.97229971 745.24794707 612.95462415 C751.28983235 612.93984876 757.33170836 612.92291619 763.37358379 612.90456009 C764.24455309 612.90191409 765.11552238 612.89926809 766.01288469 612.89654192 C767.78806575 612.89113872 769.5632468 612.88573067 771.33842783 612.88031785 C789.24405999 612.82599005 807.1497068 612.77882288 825.05536503 612.73403013 C837.82420009 612.70204997 850.59302916 612.66831668 863.36185577 612.63312437 C958.36228825 612.37141166 1053.3625172 612.19449456 1325.77408695 612.25168228 C1325.77408695 630.07168228 1325.77408695 647.89168228 1325.77408695 666.25168228 C1264.25254685 666.38752219 1202.73100913 666.51653757 1141.20935917 666.5904274 C1140.2921567 666.59153186 1139.37495424 666.59263631 1138.42995776 666.59377424 C1118.47481747 666.61774291 1098.51967556 666.6399007 1078.56453121 666.66020492 C1068.77207808 666.67017964 1058.97962538 666.68055262 1049.18717289 666.69113541 C1048.21294233 666.69218148 1047.23871177 666.69322755 1046.23495907 666.69430532 C1014.91611626 666.72811904 983.59739242 666.78799565 952.27862106 666.86206005 C919.97125963 666.9383197 887.66396342 666.98694737 855.35651354 667.0030022 C850.74546928 667.00530591 846.13442523 667.00791096 841.52338123 667.01070023 C840.6162656 667.01123961 839.70914998 667.01177899 838.77454599 667.01233472 C826.19457149 667.02048437 813.61475817 667.0470235 801.03485192 667.08876971 C725.58690554 667.3390272 650.83424563 666.84059052 575.6395632 659.76840162 C554.00704618 657.74408101 532.33125901 656.37120432 510.64908695 655.00168228 C508.62832769 654.87333554 506.6075719 654.74493416 504.58681941 654.61648083 C476.97149891 652.86430335 449.34823822 651.31442442 421.71158695 649.93918228 C420.8844595 649.89798767 420.05733204 649.85679306 419.20514011 649.81435013 C366.89738143 647.21690221 314.63379105 646.09028538 262.26256251 646.08442521 C258.58892567 646.08369933 254.91529227 646.08153716 251.2416563 646.07892799 C238.2738672 646.06975249 225.30608817 646.06558259 212.33829594 646.06637955 C201.80214754 646.06691039 191.26603642 646.05988 180.7298975 646.04587173 C108.90964587 645.88094837 108.90964587 645.88094837 37.10143018 647.01712203 C34.83519496 647.07484209 32.5688934 647.12834533 30.30253506 647.18098259 C-2.91879572 647.3233948 -2.91879572 647.3233948 -31.0501318 663.13449478 C-35.51768406 668.65132687 -37.3533748 673.61902222 -37.10091305 680.81418228 C-35.35680762 687.66602503 -32.41774587 691.87023696 -26.6673193 695.84152603 C-14.6598854 702.77701985 -0.81377643 705.12761299 12.87223148 705.7968483 C13.67660711 705.83716203 14.48098274 705.87747576 15.30973339 705.91901112 C27.64721755 706.48354916 39.9999526 706.59280887 52.34793425 706.75032544 C54.62062294 706.77956443 56.89329141 706.81009134 59.16595936 706.84089851 C99.34361138 707.38171523 139.52400666 707.5761725 179.70454383 707.76909196 C186.83141655 707.80352259 193.95827147 707.84064626 201.08512211 707.87936783 C242.6669121 708.10496536 284.24895993 708.29643767 325.83139515 708.33896065 C329.41755704 708.34269291 333.00370194 708.34870916 336.58985615 708.35698509 C365.98945608 708.42147569 395.27961253 707.72134136 424.62613773 705.84250259 C425.33566153 705.79709965 426.04518532 705.7516967 426.77620983 705.70491791 C429.10891495 705.55503985 431.44151326 705.40359153 433.77408695 705.25168228 C434.61625515 705.19695251 435.45842335 705.14222275 436.32611179 705.0858345 C477.85072143 702.38072998 519.34937733 699.31229856 560.83658695 696.08761978 C561.99414431 695.99765165 563.15170166 695.90768353 564.34433651 695.81498909 C575.57547938 694.94127108 586.80621185 694.06267316 598.03570843 693.16802597 C602.18227953 692.83802295 606.32904288 692.51047271 610.4758234 692.1831131 C613.23272702 691.96440823 615.98930761 691.74195535 618.74588871 691.51922989 C645.44494431 689.39113824 672.03485463 687.94669095 698.82303914 687.93500726 C702.48044041 687.93119405 706.13780079 687.91596639 709.79517651 687.90240192 C716.97948594 687.87746154 724.16378139 687.86254636 731.34812357 687.85109391 C739.94382376 687.83693069 748.53948394 687.81180588 757.13515754 687.78657579 C773.88364689 687.73782001 790.63214689 687.70024914 807.38067468 687.66765719 C821.96513179 687.63924825 836.54957208 687.6065324 851.13401127 687.57007217 C947.6255137 687.32980306 1044.11698101 687.19918133 1325.77408695 687.25168228 C1325.77408695 706.06168228 1325.77408695 724.87168228 1325.77408695 744.25168228 C1252.67841049 744.37131473 1179.58272573 744.48313473 1106.48697758 744.54808426 C1105.40216218 744.54905066 1104.31734678 744.55001706 1103.19965819 744.55101274 C1079.61393532 744.57197149 1056.0282114 744.59136156 1032.44248593 744.60913959 C1020.87316911 744.61786963 1009.30385258 744.62694569 997.73453617 744.63620377 C996.58335559 744.63711908 995.43217501 744.63803439 994.24611017 744.63897744 C957.0485953 744.66871525 919.85115571 744.72122519 882.6536863 744.78576283 C844.37341203 744.85205724 806.09317929 744.89494171 767.81284859 744.90908721 C762.38465491 744.91110379 756.95646137 744.91338323 751.52826786 744.91582298 C749.92601896 744.91653092 749.92601896 744.91653092 748.29140139 744.91725317 C731.21578663 744.92546991 714.14030167 744.95778488 697.06473949 744.99950652 C679.82599223 745.04109822 662.58737139 745.05636433 645.34857589 745.04619192 C636.03742468 745.04139271 626.72661858 745.04730943 617.41553783 745.08612061 C578.06790166 745.24375185 539.91936532 744.22957956 500.94306278 738.19262803 C494.16718152 737.14564429 487.37720037 736.21093298 480.58365726 735.28652477 C479.50470377 735.13947723 478.42575027 734.99242968 477.31410122 734.84092614 C475.22597948 734.55697489 473.13777924 734.27360031 471.04949665 733.99083441 C466.72222263 733.40480248 462.39548437 732.81484485 458.06870365 732.22518307 C445.24648904 730.49478931 432.40566636 729.08268007 419.52408695 727.87668228 C418.67493717 727.79705246 417.82578739 727.71742264 416.9509058 727.63537979 C380.80364028 724.28772021 344.67254021 724.08855063 308.40150356 724.08442521 C304.82111176 724.08370412 301.24072357 724.08155002 297.66033268 724.07892799 C285.03971973 724.06971296 272.41911721 724.06558683 259.79850101 724.06637955 C249.52049018 724.06690879 239.24251772 724.05992789 228.96451664 724.04587173 C159.2961766 723.8731166 159.2961766 723.8731166 89.64050579 725.01712203 C87.46972119 725.07485362 85.29886707 725.12834935 83.12795353 725.18098259 C79.21573064 725.27784767 75.30457082 725.40002822 71.39322758 725.52780533 C70.30150745 725.55548429 69.20978733 725.58316326 68.08498478 725.61168098 C52.29759235 726.21118942 36.4660279 729.5905241 24.84439945 740.85715103 C20.86759771 745.45673493 18.67855256 750.22340605 18.27408695 756.31418228 C19.15600311 763.25927199 21.92797765 768.48336212 27.49283695 772.81027603 C50.6756305 787.45830826 81.50542104 784.44213242 107.72721195 784.80246353 C108.81381469 784.81791257 108.81381469 784.81791257 109.922369 784.83367372 C157.31305384 785.50731805 204.71012148 785.43919096 252.10452223 785.43679345 C262.32529983 785.43714494 272.54604333 785.44880286 282.76681018 785.46272868 C292.80773783 785.47590287 302.84865049 785.48116528 312.88958669 785.48052961 C318.80965834 785.48027886 324.72968803 785.48289286 330.64975071 785.49370766 C356.43293629 785.53762476 382.05985962 785.25802078 407.77408695 783.25168228 C408.83168311 783.16950329 409.88927927 783.0873243 410.9789238 783.00265503 C417.18947198 782.51079068 423.38759069 781.93391165 429.58658695 781.31418228 C430.5845731 781.21818741 431.58255924 781.12219254 432.61078739 781.02328873 C447.51669098 779.58539379 462.3613669 777.81997437 477.20919323 775.88344002 C483.08315551 775.12183231 488.95995189 774.38221264 494.83644867 773.64045048 C499.62933906 773.03262886 504.41900928 772.40977628 509.20417118 771.74365616 C534.04753511 768.29190154 558.69616138 766.85592102 583.75477314 766.64706282 C587.04523638 766.61807425 590.33560216 766.58152743 593.62599251 766.54530977 C630.14129186 766.14592627 666.65892777 766.03511754 703.17607575 765.9546146 C709.96593138 765.93957067 716.75578028 765.92261251 723.54562855 765.90456009 C724.5410443 765.90191409 725.53646005 765.89926809 726.56203992 765.89654192 C728.5923539 765.89113744 730.62266787 765.88572939 732.65298183 765.88031785 C752.78388134 765.826888 772.91479196 765.77935233 793.04571116 765.73403013 C807.35086601 765.70179485 821.65601643 765.66804905 835.96116497 765.63312437 C939.09962119 765.38146818 1042.23791505 765.19498539 1325.77408695 765.25168228 C1325.77408695 785.38168228 1325.77408695 805.51168228 1325.77408695 826.25168228 C1293.35301795 826.29220685 1293.35301795 826.29220685 1280.76285648 826.30722427 C1279.97913211 826.30815925 1279.19540773 826.30909423 1278.38793413 826.31005754 C1226.28829173 826.37211783 1174.18865063 826.42793581 1122.08898258 826.46339798 C1121.07746576 826.46408827 1120.06594893 826.46477855 1119.02378008 826.46548975 C1097.0189822 826.48046866 1075.01418375 826.4943175 1053.00938443 826.50700893 C1042.21179491 826.51324337 1031.41420555 826.51972645 1020.61661625 826.52634048 C1019.54236199 826.52699428 1018.46810773 826.52764808 1017.36130031 826.52832168 C982.7998671 826.54947171 948.2384759 826.58690772 913.67706793 826.63316839 C878.0377513 826.68078303 842.3984577 826.71121236 806.75910981 826.72125723 C801.67755746 826.72269714 796.59600519 826.7243253 791.51445293 826.7260685 C790.014874 826.72657417 790.014874 826.72657417 788.48500055 826.72709006 C774.59892505 826.73219132 760.71290642 826.74880873 746.82685501 826.77486404 C599.3833986 827.0512759 599.3833986 827.0512759 536.98038578 823.9711647 C535.4206669 823.89433144 535.4206669 823.89433144 533.82943855 823.815946 C483.16960758 821.28899041 432.39964775 818.13911634 382.306283 809.97894669 C375.29960391 808.83866794 368.28731905 807.73365417 361.27408695 806.63449478 C360.58979052 806.5272225 359.90549408 806.41995022 359.20046139 806.30942726 C318.07966946 799.88027729 277.75276217 798.51557304 236.17374516 799.99631119 C232.41902571 800.12817703 228.6640255 800.24680141 224.90885258 800.36496353 C222.47197611 800.44880311 220.0351259 800.53341019 217.5983057 800.61886978 C215.95108776 800.66900726 215.95108776 800.66900726 214.27059269 800.72015762 C197.86370492 801.3397636 181.62119484 804.02984627 169.2154932 815.72043228 C164.22580995 821.28755662 162.09867751 827.25504017 162.36783695 834.63449478 C163.53216167 842.13543288 167.56052182 847.99074854 173.4186182 852.66183853 C185.24328454 860.64299806 198.58434748 864.50283681 212.58658695 866.37668228 C214.38760868 866.62369888 214.38760868 866.62369888 216.22501469 866.87570572 C244.12938445 870.51297919 272.2655481 871.24644482 300.33658695 869.50168228 C301.92817631 869.40935318 301.92817631 869.40935318 303.55191898 869.31515884 C321.61128027 868.02271458 339.45537628 864.61905581 357.16471195 860.97433853 C357.87606234 860.82802994 358.58741272 860.68172134 359.32031918 860.53097916 C360.77805397 860.23109063 362.23578743 859.93119559 363.69351959 859.63129425 C396.83941678 852.81654949 429.50128534 847.63759614 463.32224369 845.4777565 C466.89055312 845.24405447 470.45701814 844.99085258 474.02359867 844.73215103 C486.89827269 843.79854717 499.77491754 842.94142791 512.66352081 842.22251987 C513.72852885 842.16306767 513.72852885 842.16306767 514.8150522 842.10241441 C532.43762745 841.12509358 550.06708051 840.34026568 567.70330143 839.65578079 C568.96468394 839.60668972 568.96468394 839.60668972 570.25154893 839.55660691 C605.84866233 838.18062171 641.40230323 837.82874556 677.0224242 837.89884891 C685.66389542 837.91517831 694.30534447 837.91279949 702.94682732 837.91043989 C718.87358209 837.90656712 734.80029855 837.91625224 750.7270422 837.93449211 C766.42859878 837.95242677 782.13013929 837.96382628 797.83170605 837.96705055 C799.31249684 837.96735988 799.31249684 837.96735988 800.8232026 837.96767546 C805.83946701 837.96869087 810.85573144 837.96959487 815.87199587 837.97045609 C851.12867697 837.97670773 886.38533738 837.99677874 921.64200687 838.02536392 C955.8298313 838.05304992 990.01765 838.0742351 1024.20548344 838.08688736 C1025.79451363 838.08747923 1025.79451363 838.08747923 1027.41564545 838.08808305 C1038.0569898 838.09203962 1048.69833418 838.09586691 1059.33967861 838.09959963 C1081.0049539 838.1072022 1102.67022882 838.11566594 1124.33550358 838.12465286 C1125.33098774 838.12506473 1126.3264719 838.1254766 1127.35212225 838.12590095 C1193.49278574 838.15336434 1259.63343778 838.20088255 1325.77408695 838.25168228 C1325.84428776 847.68501572 1325.89724763 857.11825619 1325.92952347 866.55179596 C1325.94503161 870.93443805 1325.96598991 875.31689856 1326.00040531 879.69943619 C1326.36899686 927.92205014 1317.78224301 968.77419664 1282.77408695 1004.68918228 C1258.86069865 1028.48253851 1225.10596116 1043.26344339 1191.20142942 1043.38586148 C1190.02863149 1043.38262978 1190.02863149 1043.38262978 1188.83214068 1043.37933278 C1187.97326771 1043.38098356 1187.11439474 1043.38263434 1186.22949532 1043.38433514 C1183.35619821 1043.38864344 1180.48295279 1043.38586407 1177.60965443 1043.38311005 C1175.5180758 1043.38476047 1173.42649749 1043.3868471 1171.33491969 1043.38933015 C1165.56938554 1043.39489647 1159.80386625 1043.39422444 1154.03833027 1043.39255256 C1147.77243976 1043.39182177 1141.50655344 1043.39684369 1135.24066472 1043.40112758 C1124.25256107 1043.40782788 1113.26446219 1043.41080523 1102.2763567 1043.41126251 C1090.48587361 1043.41176501 1078.69539395 1043.414413 1066.90491199 1043.4196701 C1065.7878384 1043.42016531 1065.7878384 1043.42016531 1064.64819767 1043.42067051 C1061.61505958 1043.42202052 1058.5819215 1043.42338319 1055.54878342 1043.42476262 C1019.642561 1043.4410632 983.73633924 1043.44745108 947.83011375 1043.45221048 C929.94880684 1043.45459403 912.0675003 1043.45829759 894.18619368 1043.46224758 C836.82198869 1043.47491223 779.45778371 1043.48569584 722.09357734 1043.48908804 C719.35197551 1043.48925028 716.61037369 1043.48941584 713.86877187 1043.48958242 C708.3704902 1043.48991622 702.87220854 1043.4902467 697.37392688 1043.49057698 C690.93684101 1043.49096388 684.49975514 1043.49135349 678.06266927 1043.49174805 C676.22032632 1043.49186047 674.37798336 1043.49197188 672.53564041 1043.4920823 C613.37465975 1043.49563121 554.21369124 1043.51070737 495.05271522 1043.53402004 C452.5408344 1043.55076528 410.02895588 1043.56623825 367.51707172 1043.570755 C366.64249725 1043.57084849 365.76792277 1043.57094198 364.86684603 1043.5710383 C345.66612679 1043.57305751 326.46540759 1043.57421342 307.26468826 1043.57456688 C300.3939084 1043.57470305 293.52312855 1043.57491204 286.6523487 1043.57516013 C284.94309702 1043.57522169 283.23384534 1043.57528001 281.52459367 1043.57533508 C254.3061797 1043.5762543 227.08777844 1043.58621536 199.86936865 1043.60079257 C172.44647622 1043.6154205 145.02359936 1043.62044301 117.60070372 1043.61237303 C113.80716072 1043.61125773 110.0136177 1043.61024704 106.22007465 1043.60929871 C105.47646994 1043.60910874 104.73286523 1043.60891877 103.96672704 1043.60872305 C92.21553867 1043.60599458 80.46437917 1043.6133147 68.71319708 1043.62487207 C57.14428366 1043.63603949 45.57542456 1043.63616805 34.00650784 1043.62550189 C27.82371266 1043.6201096 21.64101737 1043.6194008 15.45823047 1043.63201061 C9.82358465 1043.64340635 4.18911937 1043.64076309 -1.4455204 1043.62734354 C-3.46165221 1043.62492585 -5.47779819 1043.62743518 -7.49391434 1043.63574001 C-47.29134632 1043.78877914 -83.07865529 1032.17168708 -112.22591305 1004.25168228 C-112.89880367 1003.63035416 -113.5716943 1003.00902603 -114.26497555 1002.36886978 C-140.36444946 977.51717948 -154.28315134 940.65144499 -155.31852373 905.06894372 C-155.3544559 901.62998248 -155.36042087 898.19230508 -155.3545475 894.75316048 C-155.35630054 893.43959422 -155.35805358 892.12602797 -155.35985973 890.77265668 C-155.36455765 887.14446486 -155.36309856 883.51629836 -155.36058196 879.88810535 C-155.35894132 875.93396338 -155.36309599 871.97982665 -155.36649114 868.02568638 C-155.37163436 861.10121305 -155.37306421 854.17674671 -155.37203503 847.25227165 C-155.37050828 836.95492841 -155.37467588 826.65759289 -155.37990965 816.36025115 C-155.38957565 796.89745511 -155.39239361 777.43466171 -155.39296671 757.97186355 C-155.39342643 742.94036107 -155.39548569 727.90885963 -155.39866734 712.87735748 C-155.39956489 708.54897567 -155.40045471 704.22059385 -155.40134221 699.89221203 C-155.40156326 698.81613224 -155.40178431 697.74005244 -155.40201206 696.63136417 C-155.40816543 666.36713312 -155.4121127 636.10290243 -155.41166878 605.83867073 C-155.41164541 604.12746345 -155.41164541 604.12746345 -155.41162157 602.38168632 C-155.41153846 596.59974697 -155.41143942 590.81780762 -155.41133686 585.03586827 C-155.41131692 583.88757554 -155.41129697 582.73928281 -155.41127642 581.55619333 C-155.41123598 579.23406596 -155.41119419 576.9119386 -155.41115103 574.58981123 C-155.41053832 538.4637512 -155.41804444 502.33770056 -155.43172359 466.21164322 C-155.44708949 425.61432962 -155.45568951 385.0170222 -155.45476037 344.41970551 C-155.45468574 340.08943756 -155.45463704 335.75916962 -155.45460606 331.42890167 C-155.4545944 330.36269797 -155.45458275 329.29649427 -155.45457074 328.19798136 C-155.45453999 311.05234996 -155.46092133 293.90672673 -155.46953832 276.76109775 C-155.47802177 259.52449487 -155.47899932 242.28790391 -155.472429 225.05130009 C-155.46873801 214.817025 -155.47055223 204.58278616 -155.48037134 194.34851492 C-155.48638216 187.50408498 -155.48506363 180.65968122 -155.47790084 173.81525246 C-155.47402866 169.92098126 -155.47321662 166.02678006 -155.48135819 162.13251387 C-155.55284398 125.58455392 -155.55284398 125.58455392 -151.47591305 108.06418228 C-151.22212887 106.95840836 -151.22212887 106.95840836 -150.96321774 105.83029556 C-149.14207942 98.31122625 -146.43622492 91.29151658 -143.22591305 84.25168228 C-142.94264156 83.61552994 -142.65937008 82.97937759 -142.36751461 82.32394791 C-132.75294884 60.97005046 -117.99790635 42.288398 -99.22591305 28.25168228 C-98.42927242 27.65097916 -97.6326318 27.05027603 -96.81185055 26.43136978 C-67.45339746 5.10584849 -35.49919938 -0.09112276 0 0 Z " fill="#3497FD" transform="translate(654.2259130477905,243.74831771850586)"/>
<path d="M0 0 C2.28459758 2.28459758 2.97129748 4.12537344 4.125 7.125 C4.47820312 8.03507812 4.83140625 8.94515625 5.1953125 9.8828125 C5.59363281 10.93082031 5.59363281 10.93082031 6 12 C5.26362305 12.23187012 4.52724609 12.46374023 3.76855469 12.70263672 C0.42794026 13.75665272 -2.91103605 14.81576775 -6.25 15.875 C-7.40886719 16.23980469 -8.56773438 16.60460938 -9.76171875 16.98046875 C-11.43427734 17.51220703 -11.43427734 17.51220703 -13.140625 18.0546875 C-14.16704102 18.37937012 -15.19345703 18.70405273 -16.25097656 19.03857422 C-18.63014996 19.87065102 -20.7840713 20.80859064 -23 22 C-16.70438035 40.04885423 -16.70438035 40.04885423 -3.1875 52.25 C0.80712645 53.18991211 3.89539346 53.33644316 8 53 C10.14565588 51.43888107 10.89061786 50.52739364 11.43237305 47.9152832 C11.45855713 47.13499756 11.48474121 46.35471191 11.51171875 45.55078125 C11.56489258 44.27944336 11.56489258 44.27944336 11.61914062 42.98242188 C11.64169922 42.10134766 11.66425781 41.22027344 11.6875 40.3125 C11.72166016 39.41982422 11.75582031 38.52714844 11.79101562 37.60742188 C11.87344467 35.40538879 11.93840047 33.20271418 12 31 C16.29 31 20.58 31 25 31 C25.05607422 32.51980469 25.05607422 32.51980469 25.11328125 34.0703125 C25.17898388 35.42190939 25.24542971 36.77347029 25.3125 38.125 C25.33505859 38.79015625 25.35761719 39.4553125 25.38085938 40.140625 C25.62924928 44.74712877 26.50891128 48.10656442 29 52 C32.89597867 53.47434165 32.89597867 53.47434165 41 53 C41.33 46.07 41.66 39.14 42 32 C46.29 32 50.58 32 55 32 C55.10957031 33.02480469 55.21914062 34.04960938 55.33203125 35.10546875 C55.49156745 36.46621867 55.6517584 37.82689194 55.8125 39.1875 C55.88275391 39.86103516 55.95300781 40.53457031 56.02539062 41.22851562 C56.5419629 45.46440828 57.31118425 48.63898031 60 52 C63.12635209 52.41746608 63.12635209 52.41746608 66 52 C67.11823815 49.76352369 67.19396061 48.35108471 67.31640625 45.8671875 C67.35830078 45.06152344 67.40019531 44.25585938 67.44335938 43.42578125 C67.48267578 42.58402344 67.52199219 41.74226563 67.5625 40.875 C67.60568359 40.02550781 67.64886719 39.17601562 67.69335938 38.30078125 C67.79954236 36.20071777 67.90028497 34.10038052 68 32 C71.96 32 75.92 32 80 32 C80.27263672 33.66289063 80.27263672 33.66289063 80.55078125 35.359375 C80.80410404 36.82301777 81.0580427 38.28655404 81.3125 39.75 C81.43044922 40.47960938 81.54839844 41.20921875 81.66992188 41.9609375 C82.64476773 47.5413178 82.64476773 47.5413178 86 52 C89.62563814 52.33380814 89.62563814 52.33380814 93 52 C92.61020794 45.44074057 91.57886807 40.05473373 89 34 C90.45449401 32.9944239 91.91372443 31.99569565 93.375 31 C94.59316406 30.1646875 94.59316406 30.1646875 95.8359375 29.3125 C98 28 98 28 100 28 C100.98414433 29.91411557 101.96213349 31.8313967 102.9375 33.75 C103.48277344 34.81734375 104.02804687 35.8846875 104.58984375 36.984375 C107.68947837 43.61295651 108.31941007 51.32551862 106.31640625 58.421875 C104.20479356 63.08319429 101.67628747 65.70770222 97 68 C91.03427976 69.68841139 86.48544542 68.54278591 81 66 C77.9375 63.8125 77.9375 63.8125 76 62 C75.4225 62.78375 74.845 63.5675 74.25 64.375 C71.67072126 67.38415853 69.77105688 68.65953805 65.88671875 69.40625 C61.15866177 69.60780127 58.58658345 69.14473859 54.9375 66 C53.93771252 65.02061634 52.95068922 64.02711118 52 63 C49.45943573 64.19492641 47.67023284 65.28030209 45.5 67.125 C40.38370687 69.86587132 35.69011066 69.78618492 30 69 C27.32207342 67.96614887 26.13433801 67.01896839 24 65 C23.67 64.01 23.34 63.02 23 62 C22.51789063 62.42152344 22.03578125 62.84304688 21.5390625 63.27734375 C20.59160156 64.09912109 20.59160156 64.09912109 19.625 64.9375 C18.99851562 65.48277344 18.37203125 66.02804687 17.7265625 66.58984375 C14.02169948 69.61576128 10.33056443 69.21920629 5.75 69.25 C4.99847656 69.270625 4.24695312 69.29125 3.47265625 69.3125 C-2.57521967 69.35471903 -6.78585143 68.15264444 -11.25 63.8125 C-11.8275 63.214375 -12.405 62.61625 -13 62 C-13.66 62 -14.32 62 -15 62 C-15.763125 62.78375 -16.52625 63.5675 -17.3125 64.375 C-22.88491231 69.81782132 -28.86969839 69.39530005 -36.25 69.4375 C-37.24902344 69.47037109 -38.24804688 69.50324219 -39.27734375 69.53710938 C-46.35261574 69.58797734 -51.28346435 68.24059439 -57 64 C-57.53641113 63.45166504 -58.07282227 62.90333008 -58.62548828 62.33837891 C-59.91294602 60.78584195 -59.91294602 60.78584195 -61.9453125 60.92578125 C-62.66460938 61.05339844 -63.38390625 61.18101563 -64.125 61.3125 C-73.60497651 62.67773934 -81.55550697 62.43239778 -89.875 57.1875 C-93.60354588 53.34929101 -95.16977187 49.80994126 -95.4375 44.5 C-95.20675835 38.52078164 -92.47471132 35.37639723 -88.1875 31.375 C-79.63157895 25 -79.63157895 25 -76 25 C-76.350625 24.2575 -76.70125 23.515 -77.0625 22.75 C-78.08534357 19.74965885 -78.15618269 18.8736191 -77 16 C-75.22265625 14.515625 -75.22265625 14.515625 -73.0625 13.25 C-72.35222656 12.82203125 -71.64195313 12.3940625 -70.91015625 11.953125 C-69 11 -69 11 -67 11 C-66.65743164 11.96301025 -66.31486328 12.92602051 -65.96191406 13.91821289 C-64.67888062 17.51941961 -63.38710193 21.11743873 -62.09277344 24.71459961 C-61.53572631 26.26648902 -60.98099646 27.81921239 -60.42871094 29.37280273 C-59.63056022 31.61670118 -58.82388855 33.85738362 -58.015625 36.09765625 C-57.77378479 36.78336197 -57.53194458 37.46906769 -57.28277588 38.17555237 C-54.4539434 46.27650831 -54.4539434 46.27650831 -48.89453125 52.4296875 C-44.4867111 53.29816489 -40.16669383 53.20730321 -35.6875 53.125 C-34.75615234 53.11597656 -33.82480469 53.10695313 -32.86523438 53.09765625 C-30.5765564 53.07418263 -28.28841328 53.04134729 -26 53 C-27.5608294 45.58177237 -30.52689974 39.26835436 -33.8984375 32.50976562 C-36.36819785 27.3016184 -38.76573201 21.78394724 -37 16 C-33.48124799 11.61038491 -29.74919179 9.7742793 -24.51171875 8.10546875 C-23.80852005 7.86838699 -23.10532135 7.63130524 -22.3808136 7.38703918 C-20.15409535 6.63983668 -17.92122799 5.91344353 -15.6875 5.1875 C-14.16816494 4.68170281 -12.64927896 4.17455451 -11.13085938 3.66601562 C-7.42558334 2.42832503 -3.71465422 1.20923783 0 0 Z M-77.5 38.75 C-78.3146875 39.26046875 -79.129375 39.7709375 -79.96875 40.296875 C-82.2164012 42.18144409 -82.65191579 43.14073687 -83 46 C-79.36804504 48.42130331 -77.61650652 48.21022785 -73.3125 48.125 C-71.229375 48.08375 -69.14625 48.0425 -67 48 C-68.65 44.04 -70.3 40.08 -72 36 C-74.02529045 36 -75.8607484 37.70212398 -77.5 38.75 Z " fill="#3494FC" transform="translate(1449,1348)"/>
<path d="M0 0 C1.48364146 2.22546219 2.67972957 4.24882441 3.84765625 6.62597656 C4.37830688 7.70289764 4.37830688 7.70289764 4.91967773 8.80157471 C5.29680908 9.5734613 5.67394043 10.3453479 6.0625 11.140625 C6.65043335 12.34123566 6.65043335 12.34123566 7.25024414 13.56610107 C8.07851425 15.2601138 8.90555096 16.95473007 9.73144531 18.64990234 C10.98978024 21.22905304 12.25644386 23.80400049 13.5234375 26.37890625 C14.32864371 28.02839272 15.13334743 29.6781246 15.9375 31.328125 C16.31463135 32.09191467 16.6917627 32.85570435 17.08032227 33.64263916 C19.20915346 38.038838 20.80479923 42.26143567 22 47 C22.66 47 23.32 47 24 47 C26.27823823 37.31280256 26.43210339 27.70548391 26.625 17.8125 C26.66327103 16.17641359 26.70232771 14.54034535 26.7421875 12.90429688 C26.837175 8.93634919 26.92155856 4.96830784 27 1 C31.29 1 35.58 1 40 1 C40.029729 2.7468811 40.029729 2.7468811 40.06005859 4.52905273 C40.13661702 8.88472689 40.22525361 13.24008866 40.31738281 17.59545898 C40.35546632 19.47397659 40.39035366 21.352562 40.421875 23.23120117 C40.46797713 25.94474386 40.52589285 28.65782792 40.5859375 31.37109375 C40.59748871 32.19959335 40.60903992 33.02809296 40.62094116 33.88169861 C40.80623885 44.39186805 40.80623885 44.39186805 46 53 C50.29 53 54.58 53 59 53 C59.33 35.84 59.66 18.68 60 1 C64.62 1 69.24 1 74 1 C74.33 13.54 74.66 26.08 75 39 C76.65 37.02 78.3 35.04 80 33 C82.68359375 30.734375 82.68359375 30.734375 85.4375 28.75 C86.34371094 28.08484375 87.24992187 27.4196875 88.18359375 26.734375 C93.39259302 23.52661401 98.88861729 21.92016922 105 23 C111.71282721 25.59932783 115.85941045 30.65361834 119 37 C120.92926872 44.7287674 120.1022043 51.71859971 117 59 C113.62037273 64.53795621 109.16380608 67.8894444 103 70 C98.50465429 70.57609733 94.05084781 70.56104266 89.5234375 70.53125 C87.59741196 70.53699036 87.59741196 70.53699036 85.63247681 70.54284668 C82.92763808 70.54871271 80.22333114 70.54027125 77.51855469 70.52148438 C74.06401646 70.49864917 70.61071847 70.511863 67.1562252 70.53577423 C63.84103144 70.55375366 60.52616641 70.54114551 57.2109375 70.53125 C55.97644867 70.53934692 54.74195984 70.54744385 53.47006226 70.55578613 C42.77750782 70.43905499 42.77750782 70.43905499 38 66 C34 60.84210526 34 60.84210526 34 57 C33.34 57 32.68 57 32 57 C31.73316406 57.59683594 31.46632813 58.19367188 31.19140625 58.80859375 C28.56091851 63.64696628 24.00614988 66.87969193 18.9375 68.875 C9.04006165 71.69560103 -0.96142464 70.86555923 -10 66 C-10.99 65.34 -11.98 64.68 -13 64 C-13 60.7 -13 57.4 -13 54 C-5.08 54 2.84 54 11 54 C9.57945312 51.10992188 8.15890625 48.21984375 6.6953125 45.2421875 C5.3176139 42.43273548 3.94121605 39.6226498 2.56494141 36.8125 C1.60991953 34.86424242 0.65355297 32.91664339 -0.30419922 30.96972656 C-1.68293118 28.16644808 -3.0567634 25.36081409 -4.4296875 22.5546875 C-4.85684052 21.68883026 -5.28399353 20.82297302 -5.72409058 19.93087769 C-6.32448654 18.70028122 -6.32448654 18.70028122 -6.93701172 17.44482422 C-7.28786835 16.72978729 -7.63872498 16.01475037 -8.00021362 15.27804565 C-9.17970197 12.59054324 -10.07189106 9.78432682 -11 7 C-7.37 4.69 -3.74 2.38 0 0 Z M85.7734375 45.109375 C83.20302438 47.84963921 81.12684934 50.90930556 79 54 C82.72875388 54.14560195 86.45677434 54.23417043 90.1875 54.3125 C91.24259766 54.35439453 92.29769531 54.39628906 93.38476562 54.43945312 C99.71412802 54.59049799 99.71412802 54.59049799 105.19921875 51.703125 C107.57045131 48.14370433 107.76228612 46.19257368 107 42 C104.87314071 39.4482714 104.87314071 39.4482714 102 38 C95.18667147 38 90.80192718 40.84129108 85.7734375 45.109375 Z " fill="#3494FC" transform="translate(946,1348)"/>
<path d="M0 0 C1.0703125 2.21484375 1.0703125 2.21484375 2.125 4.9375 C2.47820312 5.83339844 2.83140625 6.72929688 3.1953125 7.65234375 C4 10 4 10 4 12 C2.78884521 12.3556604 2.78884521 12.3556604 1.55322266 12.71850586 C-1.44022375 13.59851269 -4.43316814 14.48020107 -7.42578125 15.36303711 C-8.72148054 15.74489839 -10.01737817 16.12608734 -11.31347656 16.5065918 C-13.17564988 17.05340915 -15.03705516 17.60283992 -16.8984375 18.15234375 C-18.01911621 18.48226318 -19.13979492 18.81218262 -20.29443359 19.15209961 C-22.93295919 19.90011711 -22.93295919 19.90011711 -25 21 C-24.415613 26.36111551 -22.59642788 30.62721613 -20.3125 35.4375 C-19.98572266 36.16259766 -19.65894531 36.88769531 -19.32226562 37.63476562 C-16.38829858 43.87856164 -12.94105827 48.96926929 -7.2109375 52.92578125 C-2.92460996 54.35977161 0.89225214 54.3269156 5.375 54.1875 C6.20644531 54.17396484 7.03789063 54.16042969 7.89453125 54.14648438 C9.92997066 54.11139059 11.96507291 54.05759228 14 54 C13.47654282 49.83640958 12.6079678 46.83652798 10.4375 43.25 C8 39.1898017 8 39.1898017 8 37 C9.782129 35.55925285 11.62660276 34.19489351 13.5 32.875 C14.5209375 32.15054687 15.541875 31.42609375 16.59375 30.6796875 C17.78484375 29.84824219 17.78484375 29.84824219 19 29 C24.63093597 35.41437054 29.27490014 45.2640937 29.5625 53.9375 C29.08670706 59.66864219 27.64396052 64.43623268 23.4375 68.4375 C18.17574906 71.81041727 13.38901934 71.22124581 7.25 71.25 C6.16460938 71.270625 5.07921875 71.29125 3.9609375 71.3125 C-5.27919138 71.357684 -10.17975472 69.00831132 -17 63 C-17.70125 63.763125 -18.4025 64.52625 -19.125 65.3125 C-24.94684605 70.75466044 -29.74459685 71.42480919 -37.375 71.1875 C-38.20644531 71.17396484 -39.03789063 71.16042969 -39.89453125 71.14648438 C-41.92997066 71.11139059 -43.96507291 71.05759228 -46 71 C-46.00257813 71.6290625 -46.00515625 72.258125 -46.0078125 72.90625 C-46.37087453 80.94202297 -48.97996941 85.21275514 -54.75390625 90.65234375 C-65.17659832 99.20373829 -78.48760231 102.48687533 -91.75 101.875 C-97.25809829 101.31496608 -101.3939776 100.04503151 -106 97 C-106.886875 96.46375 -107.77375 95.9275 -108.6875 95.375 C-116.510522 87.34054497 -117.27623878 77.55933025 -117.234375 66.89453125 C-116.91881419 61.65096245 -115.72635502 56.94271884 -114 52 C-109.6822542 52.50797009 -105.96697886 53.19682779 -102 55 C-102.165 56.299375 -102.33 57.59875 -102.5 58.9375 C-103.83638553 70.40587038 -103.83638553 70.40587038 -100 81 C-95.65154235 85.14973781 -90.39317175 85.2918391 -84.625 85.4375 C-75.76222627 85.18175827 -67.96353689 83.71367129 -61 78 C-60.505 76.515 -60.505 76.515 -60 75 C-61.0621875 74.73445313 -62.124375 74.46890625 -63.21875 74.1953125 C-68.25130208 72.93717448 -73.28385417 71.67903646 -78.31640625 70.42089844 C-79.04730469 70.23817383 -79.77820313 70.05544922 -80.53125 69.8671875 C-81.6759375 69.58101562 -82.820625 69.29484375 -84 69 C-83.52372025 67.04096255 -83.04388577 65.08278903 -82.5625 63.125 C-82.29566406 62.03445313 -82.02882813 60.94390625 -81.75390625 59.8203125 C-81 57 -81 57 -80 55 C-63.5 54.67 -47 54.34 -30 54 C-30 48.52459119 -30.13618916 46.99257772 -32.40625 42.4453125 C-33.15068359 40.90423828 -33.15068359 40.90423828 -33.91015625 39.33203125 C-34.96694429 37.20027945 -36.02682408 35.07005744 -37.08984375 32.94140625 C-42.17813304 22.38155394 -42.17813304 22.38155394 -41 16 C-37.76933547 11.56322072 -33.87808236 9.77967846 -28.8125 8.0625 C-27.78648682 7.69789673 -27.78648682 7.69789673 -26.73974609 7.32592773 C-24.4980918 6.53566246 -22.24932511 5.76813111 -20 5 C-18.33968023 4.41713226 -16.67952649 3.83379136 -15.01953125 3.25 C-13.38858805 2.6858575 -11.7570888 2.12331962 -10.125 1.5625 C-9.34616455 1.29123291 -8.5673291 1.01996582 -7.76489258 0.74047852 C-2.23264588 -1.11632294 -2.23264588 -1.11632294 0 0 Z " fill="#3494FC" transform="translate(637,1347)"/>
<path d="M0 0 C4.29 0 8.58 0 13 0 C13.02505615 1.42787842 13.0501123 2.85575684 13.07592773 4.3269043 C13.17016385 9.6290775 13.27034505 14.93112465 13.37231445 20.2331543 C13.41560199 22.5270696 13.45728142 24.82101583 13.49731445 27.11499023 C13.55516666 30.41399454 13.61881822 33.71284401 13.68359375 37.01171875 C13.70030624 38.03585373 13.71701874 39.05998871 13.73423767 40.11515808 C13.75418289 41.07577652 13.77412811 42.03639496 13.79467773 43.02612305 C13.81022202 43.86773483 13.8257663 44.70934662 13.84178162 45.57646179 C14.00800615 48.12263557 14.44625552 50.51169671 15 53 C17.45898655 53.08076963 19.91533742 53.14037143 22.375 53.1875 C23.07367187 53.21263672 23.77234375 53.23777344 24.4921875 53.26367188 C26.76747677 53.32978561 26.76747677 53.32978561 30 53 C32.05127844 49.92308234 32.27260872 49.06355001 32.4140625 45.55078125 C32.45273438 44.70322266 32.49140625 43.85566406 32.53125 42.98242188 C32.5621875 42.10134766 32.593125 41.22027344 32.625 40.3125 C32.66367188 39.41982422 32.70234375 38.52714844 32.7421875 37.60742188 C32.83639651 35.40528622 32.91928494 33.20267153 33 31 C37.29 31 41.58 31 46 31 C46.09796875 32.08539062 46.1959375 33.17078125 46.296875 34.2890625 C46.44704676 35.73446565 46.59813732 37.17977353 46.75 38.625 C46.811875 39.33785156 46.87375 40.05070312 46.9375 40.78515625 C47.48392402 45.74850776 48.55291705 49.17515454 52 53 C54.78509114 53.92926699 54.78509114 53.92926699 57.75 53.875 C58.73484375 53.91367188 59.7196875 53.95234375 60.734375 53.9921875 C61.48203125 53.99476562 62.2296875 53.99734375 63 54 C63.80652508 51.11832319 64.17515006 48.43968453 64.31640625 45.453125 C64.35830078 44.60878906 64.40019531 43.76445313 64.44335938 42.89453125 C64.48267578 42.02183594 64.52199219 41.14914062 64.5625 40.25 C64.62727539 38.91775391 64.62727539 38.91775391 64.69335938 37.55859375 C64.79913495 35.37256528 64.9000426 33.18630223 65 31 C69.29 31 73.58 31 78 31 C78.16435547 32.51980469 78.16435547 32.51980469 78.33203125 34.0703125 C78.49159893 35.42194461 78.65178833 36.77350343 78.8125 38.125 C78.91788086 39.12273437 78.91788086 39.12273437 79.02539062 40.140625 C79.57606589 44.63413515 80.62656633 48.1380425 83 52 C85.43099674 53.23684105 85.43099674 53.23684105 88 53 C90.0841109 51.42712749 90.89766634 50.49340887 91.43237305 47.9152832 C91.45855713 47.13499756 91.48474121 46.35471191 91.51171875 45.55078125 C91.56489258 44.27944336 91.56489258 44.27944336 91.61914062 42.98242188 C91.64169922 42.10134766 91.66425781 41.22027344 91.6875 40.3125 C91.72166016 39.41982422 91.75582031 38.52714844 91.79101562 37.60742188 C91.87344467 35.40538879 91.93840047 33.20271418 92 31 C96.29 31 100.58 31 105 31 C105.16435547 32.51980469 105.16435547 32.51980469 105.33203125 34.0703125 C105.49159893 35.42194461 105.65178833 36.77350343 105.8125 38.125 C105.91788086 39.12273437 105.91788086 39.12273437 106.02539062 40.140625 C106.57562424 44.63053126 107.5824224 48.16340946 110 52 C113.18944514 52.97636076 114.97172501 53.51413749 118 52 C118.49906584 46.26074284 117.18206902 42.44866145 114.77734375 37.234375 C114 35 114 35 115 32 C116.7421875 30.578125 116.7421875 30.578125 118.875 29.25 C119.92300781 28.57710937 119.92300781 28.57710937 120.9921875 27.890625 C123 27 123 27 126 28 C127.5703125 30.80078125 127.5703125 30.80078125 129.125 34.3125 C129.64320313 35.46363281 130.16140625 36.61476563 130.6953125 37.80078125 C133.67189724 45.09965221 134.35764736 52.4463139 131.3125 59.875 C128.88845575 64.69757224 126.07131933 67.03338431 121.1875 69.3125 C115.5892834 70.51995848 111.04043987 69.77718108 106.0625 67.125 C103 65 103 65 102 62 C101.278125 62.763125 100.55625 63.52625 99.8125 64.3125 C95.82935186 68.11861934 93.11871317 70.15829331 87.5625 70.4375 C81.55314734 70.23752154 78.06094747 67.14406628 74 63 C73.29423828 63.63228516 73.29423828 63.63228516 72.57421875 64.27734375 C71.95160156 64.82519531 71.32898437 65.37304688 70.6875 65.9375 C70.07261719 66.48277344 69.45773437 67.02804687 68.82421875 67.58984375 C64.11175799 71.23266673 57.64617026 70.55266746 52 70 C48.37831612 68.1573889 45.70841738 66.00935265 43 63 C42.13375 64.175625 42.13375 64.175625 41.25 65.375 C38.49666094 68.58722891 36.65437534 69.81239693 32.43798828 70.29052734 C29.33321797 70.33969193 26.23018896 70.37130774 23.125 70.375 C22.04863281 70.39949219 20.97226563 70.42398437 19.86328125 70.44921875 C13.62281764 70.47230308 9.64889835 70.34455149 5 66 C3.57421875 63.96484375 3.57421875 63.96484375 2.6875 61.9375 C2.22923828 60.93009766 2.22923828 60.93009766 1.76171875 59.90234375 C0.30786078 56.27142666 -0.12242558 53.49997707 -0.11352539 49.6105957 C-0.11344986 48.50968094 -0.11337433 47.40876617 -0.11329651 46.27449036 C-0.10813522 45.08691635 -0.10297394 43.89934235 -0.09765625 42.67578125 C-0.0962413 41.45924362 -0.09482635 40.24270599 -0.09336853 38.98930359 C-0.08776312 35.0970109 -0.07520967 31.20477536 -0.0625 27.3125 C-0.0574857 24.67643312 -0.05292267 22.04036534 -0.04882812 19.40429688 C-0.03779193 12.93617584 -0.02052362 6.46809761 0 0 Z " fill="#3494FC" transform="translate(1771,1348)"/>
<path d="M0 0 C4.62 0 9.24 0 14 0 C14.02505615 1.46864502 14.0501123 2.93729004 14.07592773 4.45043945 C14.16997862 9.89047225 14.27020507 15.33037666 14.37231445 20.77026367 C14.41567208 23.12635295 14.45734654 25.48247383 14.49731445 27.83862305 C14.55499676 31.22193938 14.61869731 34.60509657 14.68359375 37.98828125 C14.70030624 39.04461258 14.71701874 40.10094391 14.73423767 41.18928528 C14.75418289 42.17007553 14.77412811 43.15086578 14.79467773 44.16137695 C14.81022202 45.02519485 14.8257663 45.88901276 14.84178162 46.77900696 C14.92009739 49.17365425 14.92009739 49.17365425 16 52 C18.83269666 53.41634833 21.47466438 53.3463005 24.625 53.5625 C25.81351563 53.64628906 27.00203125 53.73007813 28.2265625 53.81640625 C29.59941406 53.90728516 29.59941406 53.90728516 31 54 C30.84402344 53.45472656 30.68804688 52.90945313 30.52734375 52.34765625 C28.7083643 45.30061665 28.30990474 39.38019052 31.625 32.75 C36.97707881 26.55285612 41.76055228 24.20889828 49.95703125 23.16015625 C59.52526283 22.65656511 66.70723203 26.56433341 75 31 C73.02 34.63 71.04 38.26 69 42 C67.741875 41.505 66.48375 41.01 65.1875 40.5 C59.90422559 38.74169948 54.52455963 38.07622118 49 39 C46.50183609 40.89573058 46.04053525 41.86391738 45.125 44.9375 C44.73921853 47.98836437 44.73921853 47.98836437 46.25 50.3125 C49.36704297 53.31822001 52.63285233 53.16969526 56.76171875 53.31640625 C58.43911133 53.37924805 58.43911133 53.37924805 60.15039062 53.44335938 C61.31763672 53.48267578 62.48488281 53.52199219 63.6875 53.5625 C64.86634766 53.60568359 66.04519531 53.64886719 67.25976562 53.69335938 C70.17303626 53.79951094 73.0865026 53.90026629 76 54 C76 59.28 76 64.56 76 70 C67.75905231 70.09050631 59.51849347 70.16383338 51.27718163 70.20724869 C47.45006158 70.22808989 43.62330031 70.256343 39.79638672 70.30175781 C36.1005261 70.34534101 32.40500974 70.36916318 28.7089119 70.37950897 C27.30152597 70.38687813 25.89415807 70.40126863 24.4869194 70.42292023 C22.51018529 70.45211392 20.53310196 70.45363525 18.55615234 70.45410156 C16.87070816 70.46742523 16.87070816 70.46742523 15.1512146 70.48101807 C10.01870651 69.69756488 6.93805767 67.17257208 3.75 63.1875 C-0.32356521 55.76779194 -0.2716434 49.0280907 -0.1953125 40.72265625 C-0.1924826 39.5561705 -0.18965271 38.38968475 -0.18673706 37.18785095 C-0.17558388 33.47929424 -0.15048786 29.77098315 -0.125 26.0625 C-0.11496393 23.54101912 -0.10583918 21.01953445 -0.09765625 18.49804688 C-0.0756604 12.33193728 -0.04116373 6.16601022 0 0 Z " fill="#3494FC" transform="translate(849,1348)"/>
<path d="M0 0 C4.62 0 9.24 0 14 0 C14.02505615 1.4634082 14.0501123 2.92681641 14.07592773 4.43457031 C14.17006629 9.86158069 14.27027145 15.288465 14.37231445 20.71533203 C14.41563886 23.0645859 14.45731573 25.41387075 14.49731445 27.76318359 C14.55507715 31.1390924 14.61875468 34.51484561 14.68359375 37.890625 C14.70030624 38.94179504 14.71701874 39.99296509 14.73423767 41.07598877 C14.75418289 42.05670349 14.77412811 43.03741821 14.79467773 44.04785156 C14.81022202 44.90944885 14.8257663 45.77104614 14.84178162 46.65875244 C14.95147814 49.30619976 14.95147814 49.30619976 16 53 C20.95 53 25.9 53 31 53 C32.74822266 49.50355468 33.25855926 48.30028401 33.4140625 44.671875 C33.45273438 43.87265625 33.49140625 43.0734375 33.53125 42.25 C33.5621875 41.425 33.593125 40.6 33.625 39.75 C33.66367188 38.90953125 33.70234375 38.0690625 33.7421875 37.203125 C33.83615836 35.13576618 33.91915564 33.06791373 34 31 C38.29 31 42.58 31 47 31 C47.10957031 32.09699219 47.21914062 33.19398437 47.33203125 34.32421875 C47.49155666 35.77871516 47.65174813 37.23313863 47.8125 38.6875 C47.88275391 39.40873047 47.95300781 40.12996094 48.02539062 40.87304688 C48.56854517 45.63108072 49.47219606 49.47219606 53 53 C55.85877909 53.23701239 58.69883297 53.42219182 61.5625 53.5625 C62.77196289 53.62727539 62.77196289 53.62727539 64.00585938 53.69335938 C66.00368805 53.79975262 68.0018207 53.90040888 70 54 C68.66939824 47.81531711 68.66939824 47.81531711 65.8125 42.25 C64 39 64 39 64.0390625 37.03125 C65.48247107 33.98014245 67.7011092 32.96025657 70.5625 31.25 C71.57441406 30.63640625 72.58632812 30.0228125 73.62890625 29.390625 C74.41136719 28.93171875 75.19382812 28.4728125 76 28 C77.14785376 30.43656685 78.29335402 32.87419281 79.4375 35.3125 C79.76298828 36.00279297 80.08847656 36.69308594 80.42382812 37.40429688 C82.97983169 42.85886118 84.17299056 46.78651146 84.25 52.8125 C84.27578125 54.01519531 84.3015625 55.21789063 84.328125 56.45703125 C83.9731533 60.28988045 82.92202587 62.69715027 81 66 C80.34 66 79.68 66 79 66 C79 66.66 79 67.32 79 68 C74.03838751 70.62241675 69.03069756 70.36744202 63.5625 70.375 C62.1693457 70.41173828 62.1693457 70.41173828 60.74804688 70.44921875 C53.61318739 70.4796879 50.34795793 69.12476074 45.125 64.25 C44.75375 63.8375 44.3825 63.425 44 63 C43.13375 64.175625 43.13375 64.175625 42.25 65.375 C39.49666094 68.58722891 37.65437534 69.81239693 33.43798828 70.29052734 C30.33321797 70.33969193 27.23018896 70.37130774 24.125 70.375 C23.04863281 70.39949219 21.97226563 70.42398437 20.86328125 70.44921875 C14.78361721 70.47170826 10.64835927 70.36299957 6 66 C4.35546875 63.73828125 4.35546875 63.73828125 3.1875 61.3125 C2.78917969 60.52488281 2.39085937 59.73726562 1.98046875 58.92578125 C-0.49334688 51.54375772 -0.13814996 43.54127311 -0.09765625 35.83984375 C-0.0962413 34.80936417 -0.09482635 33.77888458 -0.09336853 32.71717834 C-0.08781447 29.45725481 -0.0752707 26.19740243 -0.0625 22.9375 C-0.05747906 20.71419371 -0.05291719 18.49088633 -0.04882812 16.26757812 C-0.03786013 10.84502507 -0.02062762 5.42252456 0 0 Z " fill="#3494FC" transform="translate(1249,1348)"/>
<path d="M0 0 C3.96 0 7.92 0 12 0 C12.06812437 8.52847185 12.12301524 17.05672757 12.15543652 25.58539963 C12.17100714 29.54678308 12.19208529 33.50796866 12.22631836 37.46923828 C12.25922247 41.30127115 12.27691747 45.13311524 12.28463173 48.96527863 C12.29012014 50.41792009 12.30083537 51.87055273 12.31719017 53.32311249 C12.45603767 66.18136404 11.52829092 77.80077167 3 88 C-4.11051305 94.9281922 -12.8056678 96.42846903 -22.34765625 96.33984375 C-29.29399773 95.69349968 -34.62371151 92.82040489 -39.375 87.75 C-46.75139881 78.17948823 -47.71240123 67.74233751 -47 56 C-46.30483009 51.90120599 -45.48537539 47.89059333 -44 44 C-43.01 43.505 -43.01 43.505 -42 43 C-39.8359375 43.77734375 -39.8359375 43.77734375 -37.375 44.9375 C-36.55773438 45.31777344 -35.74046875 45.69804688 -34.8984375 46.08984375 C-34.27195312 46.39019531 -33.64546875 46.69054688 -33 47 C-33.0721875 47.60585937 -33.144375 48.21171875 -33.21875 48.8359375 C-34.94107691 61.87124324 -34.94107691 61.87124324 -31 74 C-27.05391268 78.15938934 -23.73410463 78.31335484 -18.0625 78.5 C-12.10930781 78.29276863 -8.44659072 78.05133821 -4 74 C0.00447796 66.5947043 -0.52443787 58.07052551 -0.48828125 49.90234375 C-0.47140614 48.45787559 -0.45325216 47.01342186 -0.43388367 45.56898499 C-0.38668425 41.79619865 -0.35668177 38.02347084 -0.33044434 34.25048828 C-0.30048569 30.38887986 -0.25400859 26.52747257 -0.20898438 22.66601562 C-0.12329386 15.11076044 -0.05732767 7.55553339 0 0 Z " fill="#3494FC" transform="translate(1168,1349)"/>
<path d="M0 0 C2.69055371 3.27860887 4.37928781 6.70702005 6.125 10.5625 C6.90230469 12.26599609 6.90230469 12.26599609 7.6953125 14.00390625 C10.52394034 20.49958755 10.96127072 25.96440827 8.8125 32.75 C6.32801962 37.20493034 3.9166428 40.36111907 -1 42 C-3.37498274 42.105297 -5.75284355 42.14871923 -8.13012695 42.16113281 C-9.21360413 42.16858017 -9.21360413 42.16858017 -10.31896973 42.17617798 C-12.70874993 42.19078333 -15.09846374 42.19759919 -17.48828125 42.203125 C-19.15113832 42.2088782 -20.81399538 42.21463591 -22.47685242 42.22039795 C-25.96463327 42.23090358 -29.4523911 42.23674898 -32.94018555 42.24023438 C-37.40235456 42.24571541 -41.86421786 42.26973678 -46.32629108 42.29820633 C-49.7621702 42.31686073 -53.19797612 42.32203982 -56.6339016 42.32357025 C-58.27849179 42.32659145 -59.92308086 42.33460198 -61.56762123 42.34775543 C-63.87254485 42.36487345 -66.17672748 42.3629219 -68.48168945 42.35644531 C-69.79168411 42.36009094 -71.10167877 42.36373657 -72.45137024 42.36749268 C-77.85037754 41.80837669 -80.98534314 40.03771724 -84.75 36.1875 C-89.96173274 28.80421195 -89.16502629 21.74639337 -89 13 C-84.38 13 -79.76 13 -75 13 C-74.67 16.96 -74.34 20.92 -74 25 C-51.23 25.33 -28.46 25.66 -5 26 C-6.47959433 20.08162268 -7.46177312 16.69380159 -10.29296875 11.76171875 C-11 10 -11 10 -10 7 C-7.71484375 5.17578125 -7.71484375 5.17578125 -4.9375 3.3125 C-3.55884766 2.37857422 -3.55884766 2.37857422 -2.15234375 1.42578125 C-1.44207031 0.95527344 -0.73179687 0.48476562 0 0 Z " fill="#3494FC" transform="translate(831,1376)"/>
<path d="M0 0 C6.02879871 9.04319807 10.99330642 18.59165021 9.53515625 29.63671875 C8.45044987 34.42684549 6.08589968 37.13837496 2.31466675 40.13072205 C-1.56758941 42.32008719 -3.91407718 42.51193148 -8.34716797 42.53344727 C-9.05695801 42.54206284 -9.76674805 42.55067841 -10.49804688 42.55955505 C-12.82980482 42.58214088 -15.16035335 42.57548946 -17.4921875 42.56640625 C-19.12354893 42.57164598 -20.75490732 42.57792374 -22.38626099 42.58518982 C-25.80078412 42.59558098 -29.21489019 42.59105256 -32.62939453 42.57641602 C-36.98962435 42.55924896 -41.34853377 42.58270322 -45.70861626 42.61790562 C-49.07688002 42.6399464 -52.44483124 42.63842181 -55.81314468 42.6301403 C-57.41979544 42.62932406 -59.02646991 42.63612464 -60.63305283 42.65091133 C-75.72177247 42.76848478 -75.72177247 42.76848478 -81.59500122 38.45005798 C-86.76617977 33.11303645 -87.29719408 27.10257302 -87.25 19.9375 C-87.18631516 17.6243755 -87.10963174 15.31140251 -87 13 C-82.71 13 -78.42 13 -74 13 C-73.51171875 15.83203125 -73.0234375 18.6640625 -72.53515625 21.49609375 C-72.25248903 23.9287438 -72.25248903 23.9287438 -71 25 C-68.94521547 25.12380838 -66.8862104 25.17798203 -64.82788086 25.20532227 C-64.18399918 25.21522186 -63.54011749 25.22512146 -62.87672424 25.23532104 C-60.73946869 25.26701528 -58.60219087 25.29172449 -56.46484375 25.31640625 C-54.98653064 25.33696896 -53.50822351 25.35796524 -52.02992249 25.37937927 C-48.13207829 25.43467059 -44.23418042 25.48404857 -40.33624268 25.53222656 C-36.36148277 25.58239019 -32.38680116 25.63810301 -28.41210938 25.69335938 C-20.60813915 25.80102724 -12.80410398 25.90245287 -5 26 C-5.3079248 24.73075684 -5.61584961 23.46151367 -5.93310547 22.15380859 C-6.19291702 21.08288467 -6.19291702 21.08288467 -6.45797729 19.99032593 C-7.08446552 17.68983972 -7.97553542 15.71106534 -9.125 13.625 C-11 10.18978102 -11 10.18978102 -11 8 C-9.217871 6.55925285 -7.37339724 5.19489351 -5.5 3.875 C-3.96859375 2.78832031 -3.96859375 2.78832031 -2.40625 1.6796875 C-1.6121875 1.12539062 -0.818125 0.57109375 0 0 Z " fill="#3494FC" transform="translate(1753,1376)"/>
<path d="M0 0 C4.29 0 8.58 0 13 0 C13.01981934 1.39758545 13.03963867 2.7951709 13.06005859 4.23510742 C13.13619132 9.4255561 13.2248973 14.61572726 13.31738281 19.8059082 C13.35564079 22.05129513 13.39049921 24.29674269 13.421875 26.54223633 C13.46759417 29.77186737 13.52557807 33.00108222 13.5859375 36.23046875 C13.59748871 37.23272995 13.60903992 38.23499115 13.62094116 39.2676239 C13.64081085 40.20822159 13.66068054 41.14881927 13.68115234 42.11791992 C13.69447601 42.94176682 13.70779968 43.76561371 13.7215271 44.61442566 C14.07475374 47.64038767 14.78544281 50.78544281 17 53 C18.41570123 53.08651611 19.835595 53.10704904 21.25390625 53.09765625 C22.10791016 53.09443359 22.96191406 53.09121094 23.84179688 53.08789062 C24.73962891 53.07951172 25.63746094 53.07113281 26.5625 53.0625 C27.46419922 53.05798828 28.36589844 53.05347656 29.29492188 53.04882812 C31.53001314 53.03700225 33.76497437 53.0205222 36 53 C35.43432198 48.61762082 34.33286504 45.11012649 32.4375 41.125 C31.75494141 39.67480469 31.75494141 39.67480469 31.05859375 38.1953125 C30.70925781 37.47085937 30.35992188 36.74640625 30 36 C31.45449401 34.9944239 32.91372443 33.99569565 34.375 33 C35.18710937 32.443125 35.99921875 31.88625 36.8359375 31.3125 C39 30 39 30 41 30 C41.33 29.34 41.66 28.68 42 28 C43.31495542 30.60295276 44.62704986 33.20728033 45.9375 35.8125 C46.31068359 36.55048828 46.68386719 37.28847656 47.06835938 38.04882812 C47.42607422 38.76103516 47.78378906 39.47324219 48.15234375 40.20703125 C48.48226318 40.8616333 48.81218262 41.51623535 49.15209961 42.19067383 C52.09022613 48.46031266 52.05597444 56.04327156 49.75 62.5 C47.18255612 66.16777697 45.30480486 68.56506505 41 70 C36.80203876 70.31773956 32.6046623 70.39832106 28.39575195 70.45996094 C27.0155146 70.48648841 25.63547246 70.52732867 24.25610352 70.58300781 C11.36021582 71.09655402 11.36021582 71.09655402 6.23046875 67.03125 C1.01467913 62.07886919 -0.15100826 54.91813784 -0.34057617 48.02124023 C-0.3401069 45.78363518 -0.32349888 43.54599056 -0.29296875 41.30859375 C-0.28872391 40.12274185 -0.28447906 38.93688995 -0.28010559 37.71510315 C-0.26341433 33.95566374 -0.22577888 30.19677533 -0.1875 26.4375 C-0.17244086 23.87696091 -0.15875462 21.31641335 -0.14648438 18.75585938 C-0.11354195 12.5036964 -0.06182507 6.25194138 0 0 Z " fill="#3494FC" transform="translate(674,1348)"/>
<path d="M0 0 C2.55272649 2.55272649 4.63603415 4.68244607 6.734375 7.50390625 C7.22244629 8.15689697 7.71051758 8.8098877 8.21337891 9.48266602 C8.72046387 10.16901123 9.22754883 10.85535645 9.75 11.5625 C10.2764209 12.27269287 10.8028418 12.98288574 11.34521484 13.71459961 C12.40352424 15.14349492 13.46067282 16.57325078 14.51660156 18.00390625 C15.82585965 19.76567289 17.15280393 21.51111254 18.4921875 23.25 C24.11758042 30.66810056 26.74876781 36.21798547 25.546875 45.6328125 C24.7593997 49.04145559 23.21532761 51.32857554 21 54 C20.54625 54.5775 20.0925 55.155 19.625 55.75 C13.83901193 60.20076006 6.01504427 59.40285732 -0.875 59.4375 C-2.59396484 59.48680664 -2.59396484 59.48680664 -4.34765625 59.53710938 C-13.18631372 59.59305025 -17.77060368 57.69357753 -24.3125 51.98046875 C-24.869375 51.38878906 -25.42625 50.79710937 -26 50.1875 C-26.86625 49.28064453 -26.86625 49.28064453 -27.75 48.35546875 C-28.36875 47.68451172 -28.36875 47.68451172 -29 47 C-22.84965831 39.51708428 -22.84965831 39.51708428 -19 37 C-18.25492188 37.81855469 -17.50984375 38.63710937 -16.7421875 39.48046875 C-12.12050628 43.33186977 -6.84456636 42.54142353 -1.125 42.3125 C0.47988281 42.27866211 0.47988281 42.27866211 2.1171875 42.24414062 C4.74624407 42.18545633 7.37238582 42.1034118 10 42 C9.74791277 35.30664947 7.14571543 32.05551093 2.8125 27.125 C1.62469845 25.7238122 0.43977096 24.32018268 -0.7421875 22.9140625 C-1.30776367 22.24407227 -1.87333984 21.57408203 -2.45605469 20.88378906 C-5.27840042 17.44020594 -7.64334319 13.7706509 -10 10 C-6.7 6.7 -3.4 3.4 0 0 Z " fill="#3494FC" transform="translate(1216,1359)"/>
<path d="M0 0 C3.48133831 1.39253532 4.47886033 2.63176216 6 6 C6.66 6.33 7.32 6.66 8 7 C7.49210937 7.78761719 6.98421875 8.57523438 6.4609375 9.38671875 C-4.67796939 27.01289163 -11.2983611 44.10139654 -7.3125 65.1796875 C-4.49505288 76.66078453 0.7132082 85.80476273 8 95 C6.02 97.31 4.04 99.62 2 102 C-10.05993488 93.20629748 -17.26246337 77.43531277 -19.71875 62.91015625 C-21.97587995 39.55513103 -16.35731483 20.44851428 -2 2 C-1.34 1.34 -0.68 0.68 0 0 Z " fill="#3494FC" transform="translate(1639,1340)"/>
<path d="M0 0 C11.65727836 8.16009485 18.0779263 22.99218647 20.65625 36.65234375 C23.54513318 56.38210277 20.69863556 75.41117266 9 92 C6.41013033 95.40008206 3.74568194 98.72469414 1 102 C-1.31 100.02 -3.62 98.04 -6 96 C-4.38284223 92.76568445 -2.70418352 90.03610208 -0.6875 87.0625 C8.55642568 72.58034977 11.96102352 56.26238574 9 39.375 C6.66728748 29.19993017 1.70055737 19.86030183 -4.125 11.25 C-4.74375 10.1775 -5.3625 9.105 -6 8 C-4.75002718 4.56257474 -2.65020742 2.47352692 0 0 Z " fill="#3494FC" transform="translate(1932,1340)"/>
<path d="M0 0 C4.29 0 8.58 0 13 0 C13 22.77 13 45.54 13 69 C8.71 69 4.42 69 0 69 C0 46.23 0 23.46 0 0 Z " fill="#3494FC" transform="translate(1074,1349)"/>
<path d="M0 0 C0 0.99 0 1.98 0 3 C-1.423125 3.804375 -1.423125 3.804375 -2.875 4.625 C-6.77332254 7.58772513 -7.00800017 9.5192167 -7.7734375 14.171875 C-7.84820313 14.77515625 -7.92296875 15.3784375 -8 16 C-5.36 16 -2.72 16 0 16 C0 20.95 0 25.9 0 31 C-4.95 31 -9.9 31 -15 31 C-15.08174796 28.16607074 -15.14084985 25.33455181 -15.1875 22.5 C-15.21263672 21.70851563 -15.23777344 20.91703125 -15.26367188 20.1015625 C-15.33412941 14.37101642 -14.41179688 10.21887638 -12 5 C-8.11143687 1.20865095 -5.47584351 0 0 0 Z " fill="#3494FC" transform="translate(1595,1387)"/>
<path d="M0 0 C4.62 0 9.24 0 14 0 C14 4.95 14 9.9 14 15 C9.38 15 4.76 15 0 15 C0 10.05 0 5.1 0 0 Z " fill="#3494FC" transform="translate(1704,1427)"/>
<path d="M0 0 C4.62 0 9.24 0 14 0 C14 4.62 14 9.24 14 14 C9.38 14 4.76 14 0 14 C0 9.38 0 4.76 0 0 Z " fill="#3494FC" transform="translate(1286,1427)"/>
<path d="M0 0 C4.62 0 9.24 0 14 0 C14 4.62 14 9.24 14 14 C9.38 14 4.76 14 0 14 C0 9.38 0 4.76 0 0 Z " fill="#3494FC" transform="translate(705,1427)"/>
<path d="M0 0 C4.29 0 8.58 0 13 0 C13 4.62 13 9.24 13 14 C8.71 14 4.42 14 0 14 C0 9.38 0 4.76 0 0 Z " fill="#3494FC" transform="translate(645,1360)"/>
<path d="M0 0 C4.29 0 8.58 0 13 0 C13 4.29 13 8.58 13 13 C8.71 13 4.42 13 0 13 C0 8.71 0 4.42 0 0 Z " fill="#3494FC" transform="translate(1461,1426)"/>
<path d="M0 0 C4.29 0 8.58 0 13 0 C13 4.29 13 8.58 13 13 C8.71 13 4.42 13 0 13 C0 8.71 0 4.42 0 0 Z " fill="#3494FC" transform="translate(1860,1349)"/>
<path d="M0 0 C3.96 0 7.92 0 12 0 C12 4.29 12 8.58 12 13 C8.04 13 4.08 13 0 13 C0 8.71 0 4.42 0 0 Z " fill="#3494FC" transform="translate(790,1374)"/>
<path d="M0 0 C3.96 0 7.92 0 12 0 C12 4.29 12 8.58 12 13 C8.04 13 4.08 13 0 13 C0 8.71 0 4.42 0 0 Z " fill="#3494FC" transform="translate(775,1374)"/>
<path d="M0 0 C3.96 0 7.92 0 12 0 C12 4.29 12 8.58 12 13 C8.04 13 4.08 13 0 13 C0 8.71 0 4.42 0 0 Z " fill="#3494FC" transform="translate(1868,1363)"/>
<path d="M0 0 C3.96 0 7.92 0 12 0 C12 4.29 12 8.58 12 13 C8.04 13 4.08 13 0 13 C0 8.71 0 4.42 0 0 Z " fill="#3494FC" transform="translate(1854,1363)"/>
<path d="M0 0 C3.96 0 7.92 0 12 0 C12 4.29 12 8.58 12 13 C8.04 13 4.08 13 0 13 C0 8.71 0 4.42 0 0 Z " fill="#3494FC" transform="translate(1816,1361)"/>
<path d="M0 0 C3.96 0 7.92 0 12 0 C12 4.29 12 8.58 12 13 C8.04 13 4.08 13 0 13 C0 8.71 0 4.42 0 0 Z " fill="#3494FC" transform="translate(1801,1361)"/>
<path d="M0 0 C3.96 0 7.92 0 12 0 C12 4.29 12 8.58 12 13 C8.04 13 4.08 13 0 13 C0 8.71 0 4.42 0 0 Z " fill="#3494FC" transform="translate(1327,1361)"/>
<path d="M0 0 C3.96 0 7.92 0 12 0 C12 4.29 12 8.58 12 13 C8.04 13 4.08 13 0 13 C0 8.71 0 4.42 0 0 Z " fill="#3494FC" transform="translate(1312,1361)"/>
<path d="M0 0 C3.63 0 7.26 0 11 0 C11 4.29 11 8.58 11 13 C7.37 13 3.74 13 0 13 C0 8.71 0 4.42 0 0 Z " fill="#3494FC" transform="translate(1515,1351)"/>
<path d="M0 0 C3.63 0 7.26 0 11 0 C11 3.96 11 7.92 11 12 C7.37 12 3.74 12 0 12 C0 8.04 0 4.08 0 0 Z " fill="#3494FC" transform="translate(1522,1365)"/>
<path d="M0 0 C3.63 0 7.26 0 11 0 C11 3.96 11 7.92 11 12 C7.37 12 3.74 12 0 12 C0 8.04 0 4.08 0 0 Z " fill="#3494FC" transform="translate(1509,1365)"/>
</svg>
